<svg width="90" height="90" viewBox="0 0 90 90" fill="none" xmlns="http://www.w3.org/2000/svg">
<path d="M45.225 79.4656C45.153 79.4656 45.081 79.4476 45.018 79.4116L37.3275 75.0196C37.2015 74.9476 37.1205 74.8081 37.1205 74.6596V65.8711C37.1205 65.7226 37.2015 65.5876 37.3275 65.5111L44.4645 61.4341C44.6805 61.3126 44.811 61.0831 44.811 60.8401V54.4276C44.811 54.1801 44.6805 53.9551 44.4645 53.8336L37.3275 49.7566C37.2015 49.6846 37.1205 49.5451 37.1205 49.3966V46.1026C37.1205 45.6406 36.891 45.4111 36.432 45.4141H27.6435C27.1935 45.4141 26.964 45.6436 26.955 46.1026V49.3966C26.955 49.5451 26.874 49.6801 26.748 49.7566L19.0575 54.1531C18.9945 54.1891 18.927 54.2071 18.855 54.2071C18.783 54.2071 18.711 54.1891 18.648 54.1531L10.9575 49.7611C10.8315 49.6891 10.7505 49.5496 10.7505 49.4011V40.6126C10.7505 40.4641 10.8315 40.3291 10.9575 40.2526L18.648 35.8606C18.711 35.8246 18.7785 35.8066 18.8505 35.8066C18.9225 35.8066 18.9945 35.8246 19.0575 35.8606L26.748 40.2526C26.874 40.3246 26.955 40.4641 26.955 40.6126V43.9066C26.955 44.3626 27.1845 44.5921 27.6435 44.5951H36.432C36.897 44.6011 37.1265 44.3716 37.1205 43.9066V40.6126C37.1205 40.4641 37.2015 40.3291 37.3275 40.2526L44.4645 36.1756C44.6805 36.0541 44.811 35.8246 44.811 35.5816V29.1691C44.811 28.9216 44.6805 28.6966 44.4645 28.5751L37.3275 24.4981C37.2015 24.4261 37.1205 24.2866 37.1205 24.1381V15.3496C37.1205 15.2011 37.2015 15.0661 37.3275 14.9896L45.018 10.5931C45.081 10.5571 45.1485 10.5391 45.2205 10.5391C45.2925 10.5391 45.3645 10.5571 45.4275 10.5931L53.118 14.9851C53.244 15.0571 53.325 15.1966 53.325 15.3451V24.1336C53.325 24.2821 53.244 24.4171 53.118 24.4936L45.981 28.5706C45.765 28.6921 45.6345 28.9216 45.6345 29.1646V35.5771C45.6345 35.8246 45.765 36.0496 45.981 36.1711L53.118 40.2481C53.244 40.3201 53.325 40.4596 53.325 40.6081V43.9021C53.325 44.3791 53.5545 44.6086 54.0135 44.5906H62.802C63.258 44.5876 63.4875 44.3581 63.4905 43.9021V40.6081C63.4905 40.4596 63.5715 40.3246 63.6975 40.2481L71.388 35.8516C71.451 35.8156 71.5185 35.7976 71.5905 35.7976C71.6625 35.7976 71.7345 35.8156 71.7975 35.8516L79.488 40.2436C79.614 40.3156 79.695 40.4551 79.695 40.6036V49.3921C79.695 49.5406 79.614 49.6756 79.488 49.7521L71.7975 54.1486C71.7345 54.1846 71.667 54.2026 71.595 54.2026C71.523 54.2026 71.451 54.1846 71.388 54.1486L63.6975 49.7566C63.5715 49.6846 63.4905 49.5451 63.4905 49.3966V46.1026C63.4905 45.6436 63.261 45.4141 62.802 45.4141H54.0135C53.5425 45.4141 53.313 45.6436 53.325 46.1026V49.3966C53.325 49.5451 53.244 49.6801 53.118 49.7566L45.981 53.8336C45.765 53.9551 45.6345 54.1846 45.6345 54.4276V60.8401C45.6345 61.0876 45.765 61.3126 45.981 61.4341L53.118 65.5111C53.244 65.5831 53.325 65.7226 53.325 65.8711V74.6596C53.325 74.8081 53.244 74.9431 53.118 75.0196L45.4275 79.4161C45.3645 79.4521 45.297 79.4701 45.225 79.4701V79.4656ZM51.939 66.9196C51.804 66.9781 51.5835 67.1086 51.4755 67.1671L45.981 70.3081C45.765 70.4296 45.6345 70.6591 45.6345 70.9021V77.1616C45.6345 77.4046 45.621 77.9851 45.6705 78.2371C45.6975 78.3586 46.071 78.1066 46.1925 78.0436C46.296 77.9896 46.5525 77.8186 46.6605 77.7556L52.155 74.6146C52.371 74.4931 52.5015 74.2636 52.5015 74.0206V67.7611C52.5015 67.5181 52.497 66.9151 52.389 66.7396C52.326 66.6361 52.056 66.8476 51.9345 66.9151L51.939 66.9196ZM38.4435 66.9016C38.304 66.8521 38.0475 66.6991 38.007 66.8161C37.9395 67.0231 37.944 67.5181 37.944 67.7656V74.0251C37.944 74.2726 38.0745 74.4976 38.2905 74.6191L43.785 77.7601C43.8885 77.8186 44.181 78.0076 44.28 78.0706C44.4015 78.1471 44.793 78.3946 44.811 78.2731C44.847 78.0166 44.811 77.4091 44.811 77.1661V70.9066C44.811 70.6591 44.6805 70.4341 44.4645 70.3126L38.97 67.1716C38.8665 67.1131 38.5695 66.9601 38.439 66.9061L38.4435 66.9016ZM45.225 62.0551C45.108 62.0551 44.991 62.0866 44.883 62.1451L39.4065 65.2726C39.1905 65.3941 38.511 65.7586 38.511 65.8666C38.511 65.9836 39.1905 66.3391 39.4065 66.4606L44.883 69.5881C44.9865 69.6466 45.108 69.6781 45.225 69.6781C45.342 69.6781 45.459 69.6466 45.567 69.5881L51.0435 66.4606C51.2595 66.3391 51.939 65.9476 51.939 65.8666C51.939 65.7586 51.2595 65.3941 51.0435 65.2726L45.567 62.1451C45.4635 62.0866 45.342 62.0551 45.225 62.0551ZM78.3315 41.6116C78.2235 41.6791 77.9445 41.8411 77.8365 41.9041L72.342 45.0451C72.126 45.1666 71.9955 45.3961 71.9955 45.6391V51.8986C71.9955 52.1416 71.9685 52.6636 71.9955 53.0281C72.0045 53.1496 72.432 52.8616 72.5355 52.7896C72.6345 52.7266 72.9135 52.5511 73.0215 52.4926L78.516 49.3516C78.732 49.2301 78.8625 49.0006 78.8625 48.7576V42.4981C78.8625 42.2551 78.867 41.7466 78.741 41.4676C78.6915 41.3551 78.4485 41.5666 78.327 41.6116H78.3315ZM51.9705 41.5756C51.7995 41.6791 51.5835 41.8411 51.4755 41.9041L45.981 45.0451C45.765 45.1666 45.6345 45.3961 45.6345 45.6391V51.8986C45.6345 52.1416 45.603 52.6726 45.6435 52.9246C45.657 53.0191 46.017 52.8526 46.152 52.7806C46.2555 52.7266 46.5435 52.5736 46.6605 52.4971L52.155 49.3561C52.371 49.2346 52.5015 49.0051 52.5015 48.7621V42.5026C52.5015 42.2596 52.551 41.5846 52.4385 41.3686C52.38 41.2606 52.146 41.4541 51.966 41.5801L51.9705 41.5756ZM38.511 41.6611C38.3895 41.5846 38.124 41.4856 38.0295 41.5621C37.926 41.6431 37.9485 42.2551 37.9485 42.4981V48.7576C37.9485 49.0051 38.079 49.2301 38.295 49.3516L43.7895 52.4926C43.893 52.5511 44.199 52.7356 44.3025 52.7896C44.4285 52.8571 44.7435 52.9921 44.775 52.8706C44.829 52.6726 44.8155 52.1371 44.8155 51.8941V45.6346C44.8155 45.3871 44.685 45.1621 44.469 45.0406L38.9745 41.8996C38.871 41.8411 38.646 41.7196 38.511 41.6566V41.6611ZM25.524 41.6566C25.425 41.7151 25.2135 41.8411 25.11 41.9041L19.6155 45.0451C19.3995 45.1666 19.269 45.3961 19.269 45.6391V51.8986C19.269 52.1416 19.2645 52.7086 19.3095 52.9786C19.332 53.1001 19.692 52.8706 19.8405 52.7986C19.944 52.7491 20.1915 52.5556 20.295 52.4971L25.7895 49.3561C26.0055 49.2346 26.136 49.0051 26.136 48.7621V42.5026C26.136 42.2596 26.1135 41.6656 26.019 41.4631C25.9695 41.3506 25.6275 41.5936 25.5195 41.6611L25.524 41.6566ZM64.8045 41.5981C64.6785 41.5531 64.35 41.3191 64.323 41.4406C64.269 41.6971 64.3095 42.2551 64.3095 42.5026V48.7621C64.3095 49.0096 64.44 49.2346 64.656 49.3561L70.1505 52.4971C70.254 52.5556 70.5555 52.7716 70.6545 52.8346C70.794 52.9201 71.127 53.1856 71.154 53.0641C71.217 52.8166 71.1765 52.1461 71.1765 51.9031V45.6436C71.1765 45.3961 71.046 45.1711 70.83 45.0496L65.3355 41.9086C65.232 41.8501 64.926 41.6431 64.8045 41.6026V41.5981ZM12.132 41.6656C12.0105 41.6026 11.7045 41.4316 11.646 41.5396C11.5425 41.7196 11.583 42.2506 11.583 42.4981V48.7576C11.583 49.0051 11.7135 49.2301 11.9295 49.3516L17.424 52.4926C17.5275 52.5511 17.829 52.7446 17.928 52.8031C18.054 52.8751 18.396 53.1316 18.423 53.0101C18.477 52.7311 18.45 52.1371 18.45 51.8941V45.6346C18.45 45.3871 18.3195 45.1621 18.1035 45.0406L12.609 41.8996C12.5055 41.8411 12.2715 41.7331 12.132 41.6656ZM71.5905 36.7876C71.4735 36.7876 71.3565 36.8191 71.2485 36.8776L65.772 40.0051C65.556 40.1266 64.8765 40.4551 64.8765 40.5991C64.8765 40.7116 65.556 41.0716 65.772 41.1931L71.2485 44.3206C71.352 44.3791 71.4735 44.4106 71.5905 44.4106C71.7075 44.4106 71.8245 44.3791 71.9325 44.3206L77.409 41.1931C77.625 41.0716 78.3045 40.6846 78.3045 40.5991C78.3045 40.5136 77.625 40.1266 77.409 40.0051L71.9325 36.8776C71.829 36.8191 71.7075 36.7876 71.5905 36.7876ZM45.225 36.7876C45.108 36.7876 44.991 36.8191 44.883 36.8776L39.4065 40.0051C39.1905 40.1266 38.511 40.4641 38.511 40.5991C38.511 40.7296 39.1905 41.0716 39.4065 41.1931L44.883 44.3206C44.9865 44.3791 45.108 44.4106 45.225 44.4106C45.342 44.4106 45.459 44.3791 45.567 44.3206L51.0435 41.1931C51.2595 41.0716 51.939 40.7026 51.939 40.5991C51.939 40.4956 51.2595 40.1266 51.0435 40.0051L45.567 36.8776C45.4635 36.8191 45.342 36.7876 45.225 36.7876ZM18.8595 36.7876C18.7425 36.7876 18.6255 36.8191 18.5175 36.8776L13.041 40.0051C12.825 40.1266 12.1455 40.4596 12.1455 40.5991C12.1455 40.7026 12.825 41.0716 13.041 41.1931L18.5175 44.3206C18.621 44.3791 18.7425 44.4106 18.8595 44.4106C18.9765 44.4106 19.0935 44.3791 19.2015 44.3206L24.678 41.1931C24.894 41.0716 25.5735 40.6981 25.5735 40.5991C25.5735 40.4911 24.894 40.1266 24.678 40.0051L19.2015 36.8776C19.098 36.8191 18.9765 36.7876 18.8595 36.7876ZM51.876 16.3846C51.768 16.4341 51.579 16.5781 51.4755 16.6366L45.981 19.7776C45.765 19.8991 45.6345 20.1286 45.6345 20.3716V26.6311C45.6345 26.8741 45.5895 27.4861 45.711 27.6346C45.7875 27.7291 46.125 27.5446 46.233 27.4996C46.368 27.4456 46.557 27.2881 46.6605 27.2251L52.155 24.0841C52.371 23.9626 52.5015 23.7331 52.5015 23.4901V17.2306C52.5015 16.9876 52.515 16.2181 52.4475 16.1326C52.371 16.0381 51.993 16.3306 51.876 16.3801V16.3846ZM38.5425 16.4161C38.4165 16.3621 38.1195 16.2181 38.0025 16.2541C37.9215 16.2766 37.9485 16.9921 37.9485 17.2351V23.4946C37.9485 23.7421 38.079 23.9671 38.295 24.0886L43.7895 27.2296C43.893 27.2881 44.055 27.3916 44.1585 27.4456C44.2935 27.5176 44.667 27.7156 44.73 27.6076C44.829 27.4366 44.8155 26.8786 44.8155 26.6356V20.3761C44.8155 20.1286 44.685 19.9036 44.469 19.7821L38.9745 16.6411C38.871 16.5826 38.6505 16.4611 38.5425 16.4206V16.4161ZM45.225 11.5246C45.108 11.5246 44.991 11.5561 44.883 11.6146L39.4065 14.7421C39.1905 14.8636 38.511 15.1966 38.511 15.3361C38.511 15.4486 39.1905 15.8086 39.4065 15.9301L44.883 19.0576C44.9865 19.1161 45.108 19.1476 45.225 19.1476C45.342 19.1476 45.459 19.1161 45.567 19.0576L51.0435 15.9301C51.2595 15.8086 51.939 15.4576 51.939 15.3361C51.939 15.1921 51.2595 14.8636 51.0435 14.7421L45.567 11.6146C45.4635 11.5561 45.342 11.5246 45.225 11.5246Z" fill="#222222"/>
<path d="M68.292 73.9711C68.0625 73.9711 67.878 73.7866 67.878 73.5571V71.028C67.878 70.8345 67.7205 70.677 67.527 70.677H56.223C56.025 70.677 55.8405 70.542 55.8045 70.3485C55.755 70.0876 55.953 69.8535 56.2095 69.8535H67.509C67.716 69.8535 67.8825 69.687 67.8825 69.48V66.9691C67.8825 66.7396 68.067 66.555 68.2965 66.555H70.848C71.028 66.555 71.1765 66.4065 71.1765 66.2265V57.096C71.1765 56.898 71.3115 56.7135 71.505 56.6775C71.766 56.628 72 56.826 72 57.0825V66.2221C72 66.4066 72.1485 66.5596 72.3375 66.5596H74.8845C75.114 66.5596 75.2985 66.7441 75.2985 66.9735V73.566C75.2985 73.7955 75.114 73.98 74.8845 73.98H68.292V73.9711ZM69.0615 67.3831C68.8635 67.3831 68.706 67.5405 68.706 67.7385V72.8191C68.706 72.9991 68.8545 73.1475 69.0345 73.1475H74.142C74.322 73.1475 74.4705 72.9991 74.4705 72.8191V67.7115C74.4705 67.5315 74.322 67.3831 74.142 67.3831H69.0615Z" fill="#222222"/>
<path d="M15.5656 73.9716C15.3361 73.9716 15.1516 73.7871 15.1516 73.5576V66.9651C15.1516 66.7356 15.3361 66.5511 15.5656 66.5511H18.1351C18.3106 66.5511 18.4501 66.4116 18.4501 66.2361V57.0921C18.4501 56.8941 18.5851 56.7096 18.7786 56.6736C19.0396 56.6241 19.2736 56.8221 19.2736 57.0786V66.2271C19.2736 66.4071 19.4176 66.5511 19.5976 66.5511H22.1536C22.3831 66.5511 22.5676 66.7356 22.5676 66.9651V69.5031C22.5676 69.6966 22.7251 69.8496 22.9141 69.8496H34.2226C34.4206 69.8496 34.6051 69.9846 34.6411 70.1781C34.6906 70.4391 34.4926 70.6731 34.2361 70.6731H22.9141C22.7206 70.6731 22.5631 70.8306 22.5631 71.0241V73.5576C22.5631 73.7871 22.3786 73.9716 22.1491 73.9716H15.5566H15.5656ZM16.3081 67.3836C16.1281 67.3836 15.9796 67.5321 15.9796 67.7121V72.8196C15.9796 72.9996 16.1281 73.1481 16.3081 73.1481H21.4156C21.5956 73.1481 21.7441 72.9996 21.7441 72.8196V67.7121C21.7441 67.5321 21.5956 67.3836 21.4156 67.3836H16.3081Z" fill="#222222"/>
<path d="M18.7785 33.3189C18.585 33.2829 18.45 33.0984 18.45 32.9004V23.8149C18.45 23.6079 18.2835 23.4459 18.081 23.4459H15.57C15.3405 23.4459 15.156 23.2614 15.156 23.0319V16.4394C15.156 16.2099 15.3405 16.0254 15.57 16.0254H22.1625C22.392 16.0254 22.5765 16.2099 22.5765 16.4394V18.6354C22.5765 19.1004 22.806 19.3299 23.265 19.3239H34.236C34.434 19.3239 34.6185 19.4589 34.6545 19.6524C34.704 19.9134 34.506 20.1474 34.2495 20.1474H23.265C22.809 20.1474 22.5795 20.3769 22.5765 20.8359V23.0319C22.5765 23.2614 22.392 23.4459 22.1625 23.4459H19.9665C19.5135 23.4459 19.284 23.6754 19.278 24.1344V32.9229C19.278 33.1749 19.0485 33.3774 18.783 33.3279L18.7785 33.3189ZM16.308 16.8489C16.128 16.8489 15.9795 16.9974 15.9795 17.1774V22.2849C15.9795 22.4649 16.128 22.6134 16.308 22.6134H21.4155C21.5955 22.6134 21.744 22.4649 21.744 22.2849V17.1774C21.744 16.9974 21.5955 16.8489 21.4155 16.8489H16.308Z" fill="#222222"/>
<path d="M71.5094 33.3175C71.3159 33.2815 71.1809 33.097 71.1809 32.899V23.7685C71.1809 23.5885 71.0324 23.44 70.8524 23.44H68.2964C68.0669 23.44 67.8824 23.2555 67.8824 23.026V20.47C67.8824 20.29 67.7339 20.1415 67.5539 20.1415H56.2274C56.0294 20.1415 55.8449 20.0065 55.8089 19.813C55.7594 19.552 55.9574 19.318 56.2139 19.318H67.5584C67.7384 19.318 67.8869 19.1695 67.8869 18.9895V16.4335C67.8869 16.204 68.0714 16.0195 68.3009 16.0195H74.8934C75.1229 16.0195 75.3074 16.204 75.3074 16.4335V23.026C75.3074 23.2555 75.1229 23.44 74.8934 23.44H72.3374C72.1574 23.44 72.0089 23.5885 72.0089 23.7685V32.9125C72.0089 33.1645 71.7794 33.367 71.5139 33.3175H71.5094ZM69.0344 16.8475C68.8544 16.8475 68.7059 16.996 68.7059 17.176V22.2835C68.7059 22.4635 68.8544 22.612 69.0344 22.612H74.1419C74.3219 22.612 74.4704 22.4635 74.4704 22.2835V17.176C74.4704 16.996 74.3219 16.8475 74.1419 16.8475H69.0344Z" fill="#222222"/>
</svg>
