<svg width="90" height="90" viewBox="0 0 90 90" fill="none" xmlns="http://www.w3.org/2000/svg">
<path d="M22.4099 64.8576C20.9519 64.8576 19.7639 63.6696 19.7639 62.2116V25.1406H65.6189C65.8934 25.1406 66.1139 25.3611 66.1139 25.6356C66.1139 25.9101 65.8934 26.1306 65.6189 26.1306H21.1994C20.9519 26.1306 20.7494 26.3331 20.7494 26.5806V62.2116C20.7494 63.1251 21.4919 63.8676 22.4054 63.8676H76.1984C77.1119 63.8676 77.8544 63.1251 77.8544 62.2116V27.7866C77.8544 26.8731 77.1119 26.1306 76.1984 26.1306H73.8719C73.5974 26.1306 73.3769 25.9101 73.3769 25.6356C73.3769 25.3611 73.5974 25.1406 73.8719 25.1406H76.1984C77.6564 25.1406 78.8444 26.3286 78.8444 27.7866V62.2116C78.8444 63.6696 77.6564 64.8576 76.1984 64.8576H22.4099Z" fill="#222222"/>
<path d="M42.354 73.467V71.829L44.6265 63.873H56.133L58.4055 71.829V73.467H42.354ZM45.711 64.8585C45.5085 64.8585 45.333 64.9935 45.279 65.187L43.362 71.9055C43.3215 72.0405 43.3485 72.189 43.434 72.3015C43.5195 72.414 43.65 72.4815 43.794 72.4815H56.9655C57.105 72.4815 57.24 72.414 57.3255 72.3015C57.411 72.189 57.438 72.0405 57.3975 71.9055L55.4805 65.187C55.4265 64.9935 55.2465 64.8585 55.0485 64.8585H45.7155H45.711Z" fill="#222222"/>
<path d="M40.0995 73.4666C39.825 73.4666 39.6045 73.2461 39.6045 72.9716C39.6045 72.6971 39.825 72.4766 40.0995 72.4766H60.7995C61.074 72.4766 61.2945 72.6971 61.2945 72.9716C61.2945 73.2461 61.074 73.4666 60.7995 73.4666H40.0995Z" fill="#222222"/>
<path d="M13.8015 56.2547C12.3435 56.2547 11.1555 55.0667 11.1555 53.6087V19.1792C11.1555 17.7212 12.3435 16.5332 13.8015 16.5332H67.5945C69.0525 16.5332 70.2405 17.7212 70.2405 19.1792V56.2502H13.8015V56.2547ZM13.8015 17.5232C12.888 17.5232 12.1455 18.2657 12.1455 19.1792V53.6042C12.1455 54.5177 12.888 55.2602 13.8015 55.2602H68.8005C69.048 55.2602 69.2505 55.0577 69.2505 54.8102V19.1792C69.2505 18.2657 68.508 17.5232 67.5945 17.5232H13.8015Z" fill="#222222"/>
<path d="M20.2545 30.4334C19.98 30.4334 19.7595 30.2129 19.7595 29.9384C19.7595 29.6639 19.98 29.4434 20.2545 29.4434H56.8305C57.105 29.4434 57.3255 29.6639 57.3255 29.9384C57.3255 30.2129 57.105 30.4334 56.8305 30.4334H20.2545Z" fill="#222222"/>
<path d="M60.1605 30.4334C59.886 30.4334 59.6655 30.2129 59.6655 29.9384C59.6655 29.6639 59.886 29.4434 60.1605 29.4434H61.344C61.6185 29.4434 61.839 29.6639 61.839 29.9384C61.839 30.2129 61.6185 30.4334 61.344 30.4334H60.1605Z" fill="#222222"/>
<path d="M64.35 30.4334C64.0755 30.4334 63.855 30.2129 63.855 29.9384C63.855 29.6639 64.0755 29.4434 64.35 29.4434H65.439C65.7135 29.4434 65.934 29.6639 65.934 29.9384C65.934 30.2129 65.7135 30.4334 65.439 30.4334H64.35Z" fill="#222222"/>
<path d="M25.1416 41.193V33.75H32.5846V41.193H25.1416ZM26.5816 34.7355C26.3341 34.7355 26.1316 34.938 26.1316 35.1855V39.7485C26.1316 39.996 26.3341 40.1985 26.5816 40.1985H31.1446C31.3921 40.1985 31.5946 39.996 31.5946 39.7485V35.1855C31.5946 34.938 31.3921 34.7355 31.1446 34.7355H26.5816Z" fill="#222222"/>
<path d="M35.8965 41.193V33.75H43.3395V41.193H35.8965ZM37.3365 34.7355C37.089 34.7355 36.8865 34.938 36.8865 35.1855V39.7485C36.8865 39.996 37.089 40.1985 37.3365 40.1985H41.8995C42.147 40.1985 42.3495 39.996 42.3495 39.7485V35.1855C42.3495 34.938 42.147 34.7355 41.8995 34.7355H37.3365Z" fill="#222222"/>
<path d="M46.656 41.193V33.75H54.099V41.193H46.656ZM48.096 34.7355C47.8485 34.7355 47.646 34.938 47.646 35.1855V39.7485C47.646 39.996 47.8485 40.1985 48.096 40.1985H52.659C52.9065 40.1985 53.109 39.996 53.109 39.7485V35.1855C53.109 34.938 52.9065 34.7355 52.659 34.7355H48.096Z" fill="#222222"/>
<path d="M57.4155 41.193V33.75H64.8585V41.193H57.4155ZM58.8555 34.7355C58.608 34.7355 58.4055 34.938 58.4055 35.1855V39.7485C58.4055 39.996 58.608 40.1985 58.8555 40.1985H63.4185C63.666 40.1985 63.8685 39.996 63.8685 39.7485V35.1855C63.8685 34.938 63.666 34.7355 63.4185 34.7355H58.8555Z" fill="#222222"/>
<path d="M25.1416 51.9489V44.5059H32.5846V51.9489H25.1416ZM26.5816 45.4959C26.3341 45.4959 26.1316 45.6984 26.1316 45.9459V50.5089C26.1316 50.7564 26.3341 50.9589 26.5816 50.9589H31.1446C31.3921 50.9589 31.5946 50.7564 31.5946 50.5089V45.9459C31.5946 45.6984 31.3921 45.4959 31.1446 45.4959H26.5816Z" fill="#222222"/>
<path d="M35.8965 51.9489V44.5059H43.3395V51.9489H35.8965ZM37.3365 45.4959C37.089 45.4959 36.8865 45.6984 36.8865 45.9459V50.5089C36.8865 50.7564 37.089 50.9589 37.3365 50.9589H41.8995C42.147 50.9589 42.3495 50.7564 42.3495 50.5089V45.9459C42.3495 45.6984 42.147 45.4959 41.8995 45.4959H37.3365Z" fill="#222222"/>
<path d="M46.656 51.9489V44.5059H54.099V51.9489H46.656ZM48.096 45.4959C47.8485 45.4959 47.646 45.6984 47.646 45.9459V50.5089C47.646 50.7564 47.8485 50.9589 48.096 50.9589H52.659C52.9065 50.9589 53.109 50.7564 53.109 50.5089V45.9459C53.109 45.6984 52.9065 45.4959 52.659 45.4959H48.096Z" fill="#222222"/>
<path d="M12.726 73.4666C12.4515 73.4666 12.231 73.2461 12.231 72.9716C12.231 72.6971 12.4515 72.4766 12.726 72.4766H35.1C35.3745 72.4766 35.595 72.6971 35.595 72.9716C35.595 73.2461 35.3745 73.4666 35.1 73.4666H12.726Z" fill="#222222"/>
<path d="M65.2499 73.4666C64.9754 73.4666 64.7549 73.2461 64.7549 72.9716C64.7549 72.6971 64.9754 72.4766 65.2499 72.4766H77.2739C77.5484 72.4766 77.7689 72.6971 77.7689 72.9716C77.7689 73.2461 77.5484 73.4666 77.2739 73.4666H65.2499Z" fill="#222222"/>
</svg>
