<svg width="90" height="90" viewBox="0 0 90 90" fill="none" xmlns="http://www.w3.org/2000/svg">
<path d="M39.1816 72.972C38.8981 72.972 38.6641 72.7425 38.6641 72.4545C38.6641 72.1665 38.8936 71.937 39.1816 71.937H43.0156C43.2991 71.937 43.5331 72.1665 43.5331 72.4545C43.5331 72.7425 43.3036 72.972 43.0156 72.972H39.1816Z" fill="#222222"/>
<path d="M34.3217 18.6165C34.0382 18.6165 33.8042 18.387 33.8042 18.099C33.8042 17.811 34.0337 17.5815 34.3217 17.5815H47.8757C48.1592 17.5815 48.3932 17.811 48.3932 18.099C48.3932 18.387 48.1637 18.6165 47.8757 18.6165H34.3217Z" fill="#222222"/>
<path d="M60.9073 35.7615C60.4483 35.7615 59.9938 35.577 59.6563 35.2575C59.3053 34.9245 59.1118 34.4655 59.1118 33.9705V30.3345C59.1118 29.2275 60.0433 28.5435 60.9073 28.5435C61.2673 28.5435 61.6228 28.656 61.9288 28.8765L64.5028 30.6945C64.9798 31.032 65.2543 31.563 65.2543 32.1525C65.2543 32.742 64.9798 33.273 64.5028 33.6105L61.9288 35.4285C61.6228 35.6445 61.2673 35.7615 60.9073 35.7615ZM60.8983 29.583C60.4843 29.583 60.1468 29.9205 60.1468 30.339V33.975C60.1468 34.389 60.4843 34.731 60.8983 34.731C61.0558 34.731 61.2043 34.6815 61.3348 34.5915L63.9088 32.7735C64.1113 32.6295 64.2283 32.4045 64.2283 32.157C64.2283 31.9095 64.1113 31.6845 63.9133 31.545L61.3393 29.727C61.2133 29.637 61.0603 29.5875 60.9028 29.5875L60.8983 29.583Z" fill="#222222"/>
<path d="M18.5175 46.2015C18.234 46.2015 18 45.972 18 45.684C18 45.396 18.2295 45.1665 18.5175 45.1665H24.417C24.7005 45.1665 24.9345 45.396 24.9345 45.684C24.9345 45.972 24.705 46.2015 24.417 46.2015H18.5175Z" fill="#222222"/>
<path d="M18.5175 50.715C18.234 50.715 18 50.4855 18 50.1975C18 49.9095 18.2295 49.68 18.5175 49.68H21.465C21.7485 49.68 21.9825 49.9095 21.9825 50.1975C21.9825 50.4855 21.7485 50.715 21.465 50.715H18.5175Z" fill="#222222"/>
<path d="M26.6534 78.2685C23.5079 78.2685 20.9474 75.7125 20.9474 72.576V58.1625C20.9474 57.8835 20.7404 57.654 20.4614 57.627C15.4844 57.114 11.7314 52.9515 11.7314 47.9475C11.7314 42.9435 15.4844 38.781 20.4614 38.268C20.7359 38.241 20.9474 38.0115 20.9474 37.7325V17.433C20.9474 14.292 23.5079 11.7405 26.6534 11.7405H55.5479C58.6934 11.7405 61.2539 14.2965 61.2539 17.433V21.9105C61.2539 22.0545 61.3124 22.1985 61.4204 22.2975C61.5194 22.3965 61.6544 22.4505 61.7939 22.4505C61.7939 22.4505 61.9244 22.446 61.9874 22.4415C62.0549 22.437 62.1224 22.4325 62.1854 22.4325C67.5539 22.4325 71.9189 26.7975 71.9189 32.166C71.9189 37.5345 67.5539 41.8995 62.1854 41.8995C62.1179 41.8995 62.0549 41.895 61.9874 41.8905C61.9244 41.8905 61.7939 41.8815 61.7939 41.8815C61.6544 41.8815 61.5194 41.9355 61.4159 42.0345C61.3124 42.1335 61.2539 42.2775 61.2539 42.4215V60.813C61.2539 61.0245 61.3754 61.218 61.5689 61.3035C61.6274 61.3305 61.7309 61.353 61.7939 61.353C61.9244 61.353 62.0504 61.308 62.1494 61.2225C63.9269 59.67 66.1994 58.8195 68.5394 58.8195C73.9079 58.8195 78.2729 63.1845 78.2729 68.553C78.2729 73.9215 73.9079 78.2865 68.5394 78.2865C65.8259 78.2865 63.2969 77.184 61.4294 75.1815C61.3259 75.0735 61.1819 75.0105 61.0334 75.0105C61.0154 75.0105 60.9884 75.0105 60.9749 75.0105C60.7949 75.033 60.6464 75.1365 60.5609 75.2895C59.5529 77.139 57.6359 78.2865 55.5524 78.2865H26.6534V78.2685ZM22.5224 67.68C22.2254 67.68 21.9824 67.923 21.9824 68.22V72.5715C21.9824 75.141 24.0794 77.2335 26.6534 77.2335H55.5479C57.6854 77.2335 59.5889 75.717 60.0749 73.629C60.1064 73.4985 60.0884 73.3635 60.0209 73.2465C59.2199 71.8065 58.7969 70.173 58.7969 68.5305C58.7969 68.4855 58.7969 68.436 58.8059 68.391C58.8059 68.3415 58.8149 68.2875 58.8149 68.2335C58.8194 68.0895 58.7654 67.9455 58.6619 67.842C58.5629 67.7385 58.4189 67.68 58.2749 67.68H22.5224ZM68.5349 59.832C63.7334 59.832 59.8274 63.7335 59.8274 68.5305C59.8274 73.3275 63.7334 77.229 68.5349 77.229C73.3364 77.229 77.2334 73.3275 77.2334 68.5305C77.2334 63.7335 73.3319 59.832 68.5349 59.832ZM26.6534 12.7665C24.0794 12.7665 21.9824 14.859 21.9824 17.4285V37.728C21.9824 38.007 22.1894 38.2365 22.4684 38.2635C27.4499 38.772 31.2074 42.9345 31.2074 47.9475C31.2074 52.9605 27.4499 57.123 22.4684 57.6315C22.1939 57.6585 21.9824 57.888 21.9824 58.167V66.114C21.9824 66.411 22.2254 66.654 22.5224 66.654H58.5584C58.8059 66.654 59.0219 66.483 59.0849 66.2445C59.3099 65.322 59.6654 64.44 60.1469 63.6255C60.1964 63.54 60.2234 63.4455 60.2234 63.351V42.111C60.2234 41.8635 60.0569 41.6475 59.8139 41.589C55.4759 40.4955 52.4474 36.621 52.4474 32.1615C52.4474 27.702 55.4759 23.8275 59.8139 22.734C60.0524 22.671 60.2234 22.4595 60.2234 22.212V17.433C60.2234 14.8635 58.1264 12.771 55.5524 12.771H26.6534V12.7665ZM21.4739 39.2445C16.6724 39.2445 12.7664 43.146 12.7664 47.943C12.7664 52.74 16.6724 56.6415 21.4739 56.6415C26.2754 56.6415 30.1724 52.74 30.1724 47.943C30.1724 43.146 26.2709 39.2445 21.4739 39.2445ZM62.1854 23.454C57.3839 23.454 53.4779 27.3555 53.4779 32.1525C53.4779 36.9495 57.3839 40.851 62.1854 40.851C66.9869 40.851 70.8839 36.9495 70.8839 32.1525C70.8839 27.3555 66.9824 23.454 62.1854 23.454Z" fill="#222222"/>
<path d="M63.873 72.009C63.765 72.009 63.657 71.973 63.5715 71.91C63.459 71.829 63.387 71.7075 63.3645 71.5725C63.342 71.4375 63.378 71.298 63.459 71.19L65.961 67.7835C66.0465 67.6665 66.2175 67.59 66.4245 67.572C66.5415 67.572 66.699 67.653 66.7935 67.7835L67.6755 68.976C67.779 69.111 67.941 69.1965 68.1075 69.1965C68.274 69.1965 68.4405 69.1155 68.544 68.976L70.254 66.6585C70.353 66.528 70.506 66.447 70.668 66.447C70.83 66.447 70.9875 66.5235 71.082 66.6585L74.4075 71.1675C74.4885 71.28 74.5245 71.415 74.502 71.55C74.4795 71.685 74.4075 71.8065 74.2995 71.8875C74.2095 71.955 74.106 71.991 73.9935 71.991C73.8315 71.991 73.674 71.9145 73.575 71.7795L71.1 68.4225C70.9965 68.283 70.8345 68.202 70.6635 68.202C70.4925 68.202 70.3305 68.283 70.227 68.4225L68.5215 70.74C68.427 70.8705 68.2695 70.9515 68.1075 70.9515C67.9455 70.9515 67.788 70.875 67.6935 70.74L66.8115 69.5475C66.708 69.4125 66.546 69.327 66.3795 69.327C66.2085 69.327 66.0465 69.408 65.9475 69.5475L64.2915 71.802C64.1925 71.937 64.044 72.0135 63.873 72.0135V72.009Z" fill="#222222"/>
<path d="M67.8692 64.926C67.7297 64.926 67.5992 64.872 67.5047 64.773C67.4102 64.674 67.3517 64.548 67.3562 64.4085V64.026C67.3562 63.7425 67.5857 63.5085 67.8737 63.5085C68.1617 63.5085 68.3912 63.738 68.3912 64.026V64.4085C68.3912 64.692 68.1617 64.926 67.8737 64.926H67.8692Z" fill="#222222"/>
</svg>
