<svg width="90" height="90" viewBox="0 0 90 90" fill="none" xmlns="http://www.w3.org/2000/svg">
<path d="M62.8334 79.0471C62.3969 79.0471 61.9559 79.0291 61.5284 78.9886C61.2629 78.9661 61.0604 78.7456 61.0604 78.4756C61.0604 76.7296 60.3899 75.2941 59.5034 75.1321L59.4584 75.1231C59.3549 75.0961 59.2424 75.0781 59.1299 75.0781C58.4189 75.0781 57.3344 75.6631 56.4164 77.2966C56.3264 77.4586 56.1554 77.5576 55.9664 77.5576C55.8944 77.5576 55.8224 77.5441 55.7549 77.5126C53.5499 76.5226 51.6059 75.0691 49.9679 73.2016C49.7924 72.9991 49.8014 72.6886 49.9904 72.4996C51.3899 71.1001 51.6824 69.7186 51.3494 68.9716C51.3404 68.9491 51.3269 68.9266 51.3134 68.9041C50.9669 68.3821 50.2559 68.1076 49.2569 68.1076C48.7574 68.1076 48.2039 68.1751 47.6054 68.3056C47.5694 68.3146 47.5289 68.3191 47.4929 68.3191C47.2814 68.3191 47.0969 68.1931 47.0159 67.9951C46.1114 65.7316 45.7649 63.3196 45.9899 60.8266C46.0124 60.5611 46.2329 60.3586 46.5029 60.3586C48.2849 60.3586 49.7114 59.7016 49.9679 58.7566C50.2244 57.8116 49.3514 56.5876 47.7899 55.7101C47.5559 55.5796 47.4614 55.2961 47.5739 55.0531C48.5639 52.8481 50.0174 50.9041 51.8849 49.2661C51.9794 49.1851 52.0964 49.1401 52.2224 49.1401C52.3619 49.1401 52.4879 49.1941 52.5869 49.2931C53.5094 50.2111 54.5129 50.7421 55.3409 50.7421C55.6379 50.7421 55.9079 50.6746 56.1374 50.5351C56.9654 50.0356 57.1859 48.5506 56.6774 46.8316C56.6009 46.5706 56.7404 46.2916 57.0014 46.2016C58.9724 45.5131 61.0604 45.1621 63.2114 45.1621C63.5129 45.1621 63.8189 45.1711 64.1249 45.1846C64.3994 45.1981 64.6154 45.4231 64.6154 45.6976C64.6154 47.5561 65.2409 48.9151 66.2039 49.1581C66.3029 49.1851 66.4154 49.1986 66.5369 49.1986C67.2614 49.1986 68.3549 48.5911 69.2549 46.8856C69.3449 46.7146 69.5204 46.6111 69.7094 46.6111C69.7814 46.6111 69.8534 46.6246 69.9209 46.6561C72.1259 47.6506 74.0744 49.0996 75.7079 50.9671C75.8834 51.1696 75.8744 51.4801 75.6854 51.6691C74.4254 52.9291 73.9259 54.3556 74.4434 55.2196C74.7584 55.7416 75.4424 56.0296 76.3694 56.0296C76.9004 56.0296 77.5169 55.9351 78.1559 55.7596C78.2009 55.7461 78.2459 55.7416 78.2954 55.7416C78.5069 55.7416 78.6959 55.8676 78.7724 56.0656C79.6769 58.3291 80.0234 60.7411 79.7984 63.2296C79.7759 63.4951 79.5554 63.6976 79.2854 63.6976C77.5034 63.6976 76.0769 64.3546 75.8204 65.2996C75.5594 66.4336 76.4054 67.6621 77.9759 68.4451C78.2234 68.5666 78.3269 68.8636 78.2144 69.1156C77.2244 71.3206 75.7709 73.2691 73.9034 74.9026C73.8089 74.9836 73.6919 75.0286 73.5659 75.0286C73.4264 75.0286 73.3004 74.9746 73.2014 74.8801C72.2834 73.9576 71.2754 73.4311 70.4474 73.4311C70.1459 73.4311 69.8804 73.4986 69.6509 73.6381C68.8409 74.1241 68.5889 75.5866 69.0074 77.3686C69.0659 77.6251 68.9264 77.8861 68.6789 77.9716C66.6089 78.6961 64.7009 79.0471 62.8379 79.0471H62.8334ZM59.1299 74.0521C59.3234 74.0521 59.5124 74.0746 59.7014 74.1241C60.9389 74.3716 61.8254 75.6946 62.0414 77.5801C62.0684 77.8231 62.2709 78.0121 62.5184 78.0166C62.6264 78.0166 62.7344 78.0166 62.8424 78.0166C64.3364 78.0166 65.8574 77.7736 67.4999 77.2741C67.7339 77.2021 67.8779 76.9771 67.8464 76.7341C67.5899 74.8441 68.0579 73.3951 69.1244 72.7516C69.5069 72.5221 69.9479 72.4051 70.4294 72.4051C71.3159 72.4051 72.3194 72.8101 73.2509 73.5436C73.3319 73.6066 73.4534 73.6516 73.5569 73.6516C73.6829 73.6516 73.8044 73.6021 73.8989 73.5166C75.1094 72.3331 76.1084 70.9966 76.8734 69.5341C76.9904 69.3136 76.9229 69.0391 76.7114 68.8951C75.2129 67.8781 74.5064 66.4381 74.8304 65.0521C75.1679 63.8146 76.4999 62.9371 78.3944 62.7211C78.6419 62.6896 78.8219 62.4916 78.8309 62.2486C78.8849 60.5386 78.6464 58.8691 78.1244 57.2806C78.0524 57.0736 77.8679 56.9431 77.6564 56.9431C77.6294 56.9431 77.5934 56.9431 77.5709 56.9521C77.1479 57.0286 76.7429 57.0646 76.3649 57.0646C75.4514 57.0646 74.2229 56.8351 73.5704 55.7506C72.9044 54.6436 73.2014 53.1001 74.3579 51.6241C74.5109 51.4306 74.4974 51.1516 74.3219 50.9761C73.1429 49.7656 71.8019 48.7621 70.3349 47.9971C70.2719 47.9656 70.1774 47.9431 70.1054 47.9431C69.9434 47.9431 69.7904 48.0241 69.6959 48.1591C68.7914 49.4776 67.6484 50.2336 66.5549 50.2336C66.3524 50.2336 66.1499 50.2066 65.9519 50.1526C64.6829 49.8376 63.8459 48.5551 63.6389 46.6336C63.6119 46.3816 63.4004 46.1926 63.1484 46.1926C61.4609 46.1971 59.8049 46.4356 58.2299 46.8901C57.9869 46.9621 57.8384 47.2006 57.8834 47.4526C58.2074 49.2886 57.7529 50.7691 56.6729 51.4216C56.2904 51.6511 55.8494 51.7681 55.3679 51.7681C54.4814 51.7681 53.4779 51.3631 52.5464 50.6341C52.4654 50.5711 52.3439 50.5306 52.2404 50.5306C52.1144 50.5306 51.9929 50.5801 51.8984 50.6656C50.6789 51.8581 49.6709 53.2036 48.9059 54.6796C48.7934 54.8956 48.8519 55.1566 49.0499 55.3051C50.5844 56.4166 51.2999 57.8116 50.9624 59.0401C50.6249 60.2731 49.2974 61.1371 47.4029 61.3486C47.1599 61.3756 46.9754 61.5736 46.9664 61.8211C46.9124 63.5446 47.1509 65.2276 47.6864 66.8296C47.7539 67.0321 47.9429 67.1671 48.1544 67.1671C48.1724 67.1671 48.1949 67.1671 48.2084 67.1671C48.5864 67.1131 48.9374 67.0906 49.2704 67.0906C50.2514 67.0906 51.5609 67.3246 52.2269 68.4361C52.8074 69.5926 52.4609 71.1226 51.3269 72.5626C51.1739 72.7561 51.1919 73.0351 51.3584 73.2106C52.5464 74.4301 53.8964 75.4336 55.3724 76.2031C55.4354 76.2346 55.5299 76.2571 55.6019 76.2571C55.7594 76.2571 55.9079 76.1806 56.0024 76.0501C56.9159 74.7856 58.0544 74.0611 59.1299 74.0611V74.0521Z" fill="#222222"/>
<path d="M62.793 70.8294C60.903 70.8294 59.0985 70.2129 57.573 69.0474C55.71 67.6254 54.5265 65.5644 54.243 63.2469C53.9055 60.9294 54.504 58.6299 55.9305 56.7624C57.3525 54.8994 59.4135 53.7159 61.731 53.4324C62.1585 53.3694 62.5815 53.3379 62.9955 53.3379C64.8855 53.3379 66.69 53.9544 68.2155 55.1199C70.074 56.5419 71.2575 58.5939 71.541 60.9114C71.8785 63.2379 71.28 65.5419 69.8535 67.4049C68.4315 69.2679 66.3705 70.4514 64.053 70.7349C63.6255 70.7979 63.207 70.8294 62.7885 70.8294H62.793ZM62.9865 54.3774C62.613 54.3774 62.2395 54.4044 61.8705 54.4584C59.8275 54.7059 58.005 55.7499 56.7495 57.3924C55.494 59.0394 54.9675 61.0689 55.2645 63.1164C55.512 65.1594 56.556 66.9819 58.1985 68.2374C59.5395 69.2634 61.1325 69.8034 62.802 69.8034C63.171 69.8034 63.549 69.7764 63.918 69.7224C65.961 69.4704 67.7835 68.4309 69.039 66.7884C70.2945 65.1414 70.821 63.1119 70.524 61.0644C70.2765 59.0214 69.2325 57.1989 67.59 55.9434C66.249 54.9174 64.656 54.3774 62.9865 54.3774Z" fill="#222222"/>
<path d="M67.8015 34.6951C67.5135 34.6951 67.221 34.6861 66.9285 34.6681C66.6585 34.6501 66.447 34.4251 66.447 34.1551C66.447 32.8501 65.97 32.0356 65.502 31.9006C65.421 31.8826 65.3535 31.8736 65.286 31.8736C64.6965 31.8736 64.0395 32.4586 63.5715 33.3991C63.486 33.5746 63.306 33.6826 63.1125 33.6826C63.045 33.6826 62.973 33.6691 62.91 33.6421C61.0065 32.8276 59.661 31.4956 58.8645 30.5236C58.698 30.3166 58.7115 30.0241 58.9005 29.8351C59.7465 28.9891 60.102 28.1071 59.8095 27.5941C59.6205 27.2656 59.175 27.0766 58.581 27.0766C58.23 27.0766 57.8385 27.1441 57.4515 27.2746C57.3975 27.2926 57.3435 27.3016 57.2895 27.3016C57.0735 27.3016 56.88 27.1666 56.8035 26.9596C56.232 25.3531 55.998 23.6566 56.115 21.9151C56.133 21.6451 56.358 21.4336 56.628 21.4336C58.005 21.4336 58.7475 20.9116 58.878 20.3941C59.04 19.7461 58.455 18.9811 57.3885 18.4501C57.1635 18.3376 57.051 18.0811 57.1275 17.8381C57.5595 16.4341 58.5225 15.0211 59.913 13.7611C60.0075 13.6756 60.129 13.6261 60.2595 13.6261C60.399 13.6261 60.525 13.6801 60.624 13.7746C61.263 14.4136 61.9335 14.7826 62.451 14.7826C62.6085 14.7826 62.748 14.7466 62.8695 14.6791C63.3285 14.4181 63.585 13.5226 63.1845 12.3211C63.099 12.0601 63.2385 11.7676 63.4995 11.6731C64.8315 11.1961 66.24 10.9531 67.6755 10.9531C67.9635 10.9531 68.256 10.9621 68.544 10.9801C68.814 10.9981 69.0255 11.2231 69.0255 11.4931C69.0255 12.7981 69.5025 13.6126 69.9705 13.7476C70.047 13.7656 70.119 13.7746 70.1865 13.7746C70.7715 13.7746 71.4285 13.1896 71.901 12.2491C71.9865 12.0736 72.1665 11.9656 72.36 11.9656C72.4275 11.9656 72.4995 11.9791 72.5625 12.0061C74.466 12.8206 75.8115 14.1526 76.608 15.1246C76.7745 15.3316 76.761 15.6241 76.572 15.8131C75.726 16.6591 75.3705 17.5411 75.663 18.0541C75.852 18.3826 76.2975 18.5671 76.8915 18.5671C77.2425 18.5671 77.634 18.4996 78.021 18.3691C78.075 18.3511 78.129 18.3421 78.183 18.3421C78.399 18.3421 78.5925 18.4771 78.669 18.6841C79.2405 20.2906 79.4745 21.9871 79.3575 23.7286C79.3395 23.9986 79.1145 24.2101 78.8445 24.2101C77.8905 24.2101 77.1075 24.4801 76.7565 24.9301C76.671 25.0426 76.6395 25.1866 76.6755 25.3261C76.878 26.0731 77.4945 26.7391 78.4125 27.1981C78.6555 27.3196 78.7635 27.6121 78.6555 27.8596C77.841 29.7631 76.509 31.1086 75.537 31.9051C75.447 31.9816 75.33 32.0221 75.213 32.0221C75.0735 32.0221 74.9475 31.9681 74.8485 31.8736C74.2095 31.2346 73.539 30.8656 73.0215 30.8656C72.864 30.8656 72.7245 30.9016 72.6075 30.9691C72.1485 31.2301 71.892 32.1256 72.2925 33.3271C72.378 33.5881 72.2385 33.8806 71.9775 33.9751C70.6455 34.4521 69.237 34.6906 67.8015 34.6906V34.6951ZM65.3085 30.8476C65.466 30.8476 65.619 30.8656 65.772 30.9061C66.5955 31.1401 67.212 32.0176 67.41 33.2551C67.4505 33.4981 67.653 33.6691 67.896 33.6691C68.868 33.6601 69.822 33.5341 70.74 33.2866C70.983 33.2236 71.136 32.9851 71.1 32.7421C70.938 31.5226 71.3115 30.5281 72.0945 30.0781C72.3735 29.9161 72.684 29.8351 73.017 29.8351C73.6065 29.8351 74.259 30.0871 74.907 30.5686C74.9835 30.6271 75.105 30.6676 75.1995 30.6676C75.3255 30.6676 75.447 30.6181 75.5415 30.5326C76.257 29.8441 76.8465 29.0881 77.301 28.2826C77.427 28.0666 77.364 27.7876 77.1615 27.6391C76.257 26.9731 75.6945 26.1046 75.582 25.1956C75.573 25.1326 75.582 25.0696 75.5955 25.0066C75.816 24.1201 76.6935 23.4676 77.9445 23.2606C78.1875 23.2201 78.3585 23.0131 78.3585 22.7701C78.3495 21.8026 78.2235 20.8486 77.976 19.9261C77.922 19.7101 77.724 19.5616 77.499 19.5616C77.481 19.5616 77.4585 19.5616 77.445 19.5616C77.2515 19.5886 77.0715 19.5976 76.896 19.5976C75.9195 19.5976 75.1455 19.2196 74.772 18.5626C74.331 17.7886 74.511 16.7671 75.2625 15.7501C75.4065 15.5566 75.393 15.2911 75.222 15.1156C74.5335 14.4001 73.7775 13.8106 72.972 13.3561C72.9045 13.3201 72.8055 13.2931 72.729 13.2931C72.576 13.2931 72.4275 13.3651 72.333 13.4911C71.7165 14.3191 70.9245 14.7961 70.1595 14.7961C70.0065 14.7961 69.849 14.7781 69.696 14.7376C68.8725 14.5036 68.256 13.6261 68.058 12.3886C68.022 12.1501 67.815 11.9746 67.572 11.9746C66.6045 11.9836 65.646 12.1096 64.728 12.3571C64.485 12.4246 64.332 12.6586 64.368 12.9016C64.53 14.1211 64.1565 15.1156 63.3735 15.5656C63.0945 15.7276 62.784 15.8086 62.451 15.8086C61.875 15.8086 61.2315 15.5611 60.597 15.0976C60.5205 15.0391 60.399 15.0031 60.3045 15.0031C60.1695 15.0031 60.0345 15.0616 59.9445 15.1606C59.2785 15.8671 58.7655 16.6051 58.419 17.3431C58.3155 17.5591 58.383 17.8156 58.5765 17.9551C59.6205 18.7066 60.111 19.7101 59.877 20.6326C59.6565 21.5146 58.779 22.1716 57.528 22.3786C57.285 22.4191 57.114 22.6261 57.114 22.8691C57.123 23.8366 57.249 24.7906 57.4965 25.7131C57.5505 25.9291 57.7485 26.0776 57.9735 26.0776C57.9915 26.0776 58.014 26.0776 58.0275 26.0776C58.221 26.0506 58.401 26.0416 58.5765 26.0416C59.553 26.0416 60.3315 26.4196 60.705 27.0721C61.146 27.8461 60.966 28.8676 60.21 29.8846C60.066 30.0781 60.084 30.3481 60.2505 30.5191C60.939 31.2346 61.695 31.8241 62.5005 32.2786C62.568 32.3146 62.667 32.3416 62.7435 32.3416C62.901 32.3416 63.0495 32.2651 63.1395 32.1391C63.756 31.3156 64.548 30.8386 65.313 30.8386L65.3085 30.8476Z" fill="#222222"/>
<path d="M67.797 28.215C65.088 28.215 62.712 26.163 62.3835 23.5485C62.208 22.131 62.5905 20.7135 63.459 19.5615C64.341 18.3915 65.601 17.6535 67.0095 17.478C67.2255 17.451 67.4505 17.4375 67.6665 17.4375C70.3755 17.4375 72.756 19.485 73.0845 22.104C73.26 23.5215 72.8685 24.9435 71.982 26.109C71.0955 27.27 69.8445 28.0035 68.4585 28.179C68.2425 28.206 68.0175 28.2195 67.797 28.2195V28.215ZM67.68 18.459C67.5 18.459 67.32 18.4725 67.1355 18.495C66.0015 18.6345 64.989 19.233 64.278 20.178C63.567 21.1185 63.2565 22.2705 63.4005 23.4225C63.666 25.533 65.5875 27.189 67.7835 27.189C67.968 27.189 68.148 27.18 68.328 27.1575C69.453 27.018 70.47 26.4195 71.181 25.4745C71.892 24.534 72.2025 23.382 72.0585 22.23C71.793 20.1195 69.8715 18.4635 67.6755 18.4635L67.68 18.459Z" fill="#222222"/>
<path d="M35.946 55.0131C35.6985 55.0131 35.487 54.8376 35.442 54.5946C35.3925 54.3156 35.577 54.0456 35.856 53.9961C38.313 53.5416 40.6215 52.6191 42.9165 51.1746C43.1325 51.0396 43.209 50.7651 43.0965 50.5401C42.03 48.3351 42.0975 46.3056 43.2855 45.1176C43.902 44.5011 44.7615 44.1726 45.7695 44.1726C46.674 44.1726 47.6955 44.4381 48.726 44.9376C48.789 44.9691 48.8745 44.9871 48.942 44.9871C49.1085 44.9871 49.2615 44.9016 49.356 44.7621C50.6205 42.8271 51.57 40.5771 52.092 38.2551C52.1505 38.0121 52.011 37.7646 51.7725 37.6791C49.3965 36.8421 47.9745 35.3571 47.9745 33.7101C47.9745 32.0631 49.3965 30.5781 51.7725 29.7411C52.011 29.6556 52.146 29.4081 52.0875 29.1606C51.5655 26.8386 50.6205 24.5886 49.3515 22.6536C49.2705 22.5276 49.0905 22.4286 48.9375 22.4286C48.8655 22.4286 48.7935 22.4466 48.7305 22.4736C47.691 22.9731 46.656 23.2386 45.729 23.2386C44.694 23.2386 43.8435 22.9146 43.2765 22.2981C42.0885 21.0966 42.0255 19.0671 43.101 16.8576C43.209 16.6326 43.137 16.3626 42.9255 16.2276C40.995 14.9631 38.745 14.0181 36.4185 13.4916C36.387 13.4826 36.342 13.4781 36.3105 13.4781C36.099 13.4781 35.9145 13.6131 35.8425 13.8066C35.0055 16.1826 33.5205 17.6046 31.8735 17.6046C30.2265 17.6046 28.7415 16.1826 27.9045 13.8066C27.837 13.6086 27.648 13.4781 27.441 13.4781C27.4095 13.4781 27.369 13.4781 27.3375 13.4871C25.101 13.9911 22.9815 14.8596 20.8575 16.1421C20.637 16.2771 20.556 16.5471 20.6685 16.7766C21.7305 18.9996 21.654 21.1101 20.475 22.2936C19.881 22.8876 19.0215 23.2026 17.9865 23.2026C17.064 23.2026 16.0425 22.9506 15.0345 22.4691C14.976 22.4421 14.8905 22.4196 14.823 22.4196C14.6565 22.4196 14.499 22.5051 14.409 22.6446C13.1445 24.5751 12.195 26.8296 11.673 29.1516C11.619 29.3946 11.754 29.6421 11.988 29.7231C14.3685 30.5601 15.7905 32.0451 15.7905 33.6966C15.7905 35.3481 14.3685 36.8286 11.9925 37.6656C11.7585 37.7466 11.619 37.9941 11.673 38.2416C12.195 40.5681 13.1445 42.8181 14.409 44.7486C14.49 44.8746 14.67 44.9736 14.823 44.9736C14.895 44.9736 14.967 44.9556 15.03 44.9286C16.065 44.4246 17.0865 44.1591 17.9955 44.1591C19.0035 44.1591 19.863 44.4876 20.4795 45.1041C21.6675 46.2921 21.735 48.3171 20.6685 50.5266C20.556 50.7516 20.637 51.0261 20.8485 51.1611C23.1435 52.6056 25.452 53.5281 27.909 53.9826C28.188 54.0321 28.3725 54.3021 28.323 54.5811C28.278 54.8241 28.0665 54.9996 27.819 54.9996C27.7875 54.9996 27.756 54.9996 27.7245 54.9906C24.858 54.4596 22.167 53.3166 19.503 51.4986C19.278 51.3456 19.2105 51.0441 19.35 50.8101C20.5965 48.7311 20.754 46.8231 19.755 45.8286C19.332 45.4056 18.72 45.1806 17.991 45.1806C17.0505 45.1806 15.9075 45.5541 14.7735 46.2336C14.6925 46.2831 14.6025 46.3056 14.508 46.3056C14.3415 46.3056 14.1885 46.2246 14.094 46.0941C12.2895 43.6146 11.043 40.6491 10.485 37.5216C10.44 37.2606 10.602 36.9996 10.863 36.9321C13.2345 36.3111 14.769 35.0421 14.769 33.6876C14.769 32.3331 13.2345 31.0641 10.863 30.4431C10.6065 30.3756 10.44 30.1191 10.485 29.8536C11.043 26.7261 12.294 23.7606 14.094 21.2811C14.1885 21.1461 14.346 21.0696 14.508 21.0696C14.6025 21.0696 14.6925 21.0966 14.7735 21.1416C15.858 21.7941 16.9965 22.1496 17.982 22.1496C18.738 22.1496 19.368 21.9381 19.755 21.5466C20.745 20.5566 20.583 18.5091 19.35 16.4571C19.206 16.2186 19.278 15.9126 19.5075 15.7641C22.2885 13.9506 25.0875 12.8076 28.0575 12.2766C28.089 12.2721 28.1205 12.2676 28.1475 12.2676C28.3815 12.2676 28.584 12.4251 28.6425 12.6501C29.259 15.0216 30.5325 16.5561 31.8825 16.5561C33.2325 16.5561 34.506 15.0216 35.127 12.6501C35.1855 12.4251 35.3925 12.2676 35.6265 12.2676C35.6535 12.2676 35.685 12.2676 35.7165 12.2766C38.844 12.8346 41.8095 14.0856 44.289 15.8856C44.505 16.0431 44.5635 16.3356 44.4285 16.5651C43.182 18.6441 43.0245 20.5521 44.019 21.5466L44.0415 21.5736C44.4105 21.9786 44.9955 22.1946 45.729 22.1946C46.692 22.1946 47.88 21.8121 49.0005 21.1371C49.0815 21.0876 49.1715 21.0651 49.266 21.0651C49.428 21.0651 49.5855 21.1461 49.68 21.2766C51.4845 23.7561 52.731 26.7216 53.289 29.8491C53.334 30.1101 53.172 30.3711 52.911 30.4386C50.5395 31.0596 49.005 32.3286 49.005 33.6831C49.005 35.0376 50.5395 36.3066 52.911 36.9276C53.1675 36.9951 53.334 37.2516 53.289 37.5171C52.731 40.6446 51.48 43.6101 49.68 46.0896C49.5855 46.2246 49.428 46.3011 49.266 46.3011C49.1715 46.3011 49.0815 46.2741 49.005 46.2291C47.871 45.5496 46.728 45.1761 45.7875 45.1761C45.054 45.1761 44.442 45.4011 44.019 45.8241C43.0245 46.8186 43.182 48.7266 44.4285 50.8056C44.568 51.0396 44.5005 51.3411 44.2755 51.4941C41.6115 53.3121 38.9205 54.4551 36.0495 54.9861C36.018 54.9906 35.9865 54.9951 35.955 54.9951L35.946 55.0131Z" fill="#222222"/>
<path d="M28.2509 46.6562C28.2014 46.6562 28.1564 46.6472 28.1069 46.6337C24.4484 45.5717 21.4019 42.9437 19.7549 39.4292C18.2654 36.1757 18.1259 32.5397 19.3589 29.1827C20.5919 25.8302 23.0489 23.1707 26.2754 21.6947C28.0484 20.8847 29.9294 20.4707 31.8689 20.4707C37.0889 20.4707 41.8544 23.5127 44.0054 28.2152C45.4949 31.4687 45.6344 35.1047 44.4014 38.4572C43.1684 41.8097 40.7114 44.4692 37.4849 45.9452C37.4669 45.9542 37.4489 45.9587 37.4309 45.9677C36.9629 46.1252 36.5444 46.2827 36.1664 46.4312L35.7839 45.4772C36.1664 45.3287 36.5849 45.1667 37.0529 45.0092C37.0664 45.0047 37.0844 45.0002 37.0979 44.9912C43.2179 42.1562 45.8954 34.8257 43.0694 28.6472C41.0804 24.3047 36.6884 21.5012 31.8689 21.5012C30.0779 21.5012 28.3409 21.8837 26.7029 22.6307C23.6969 24.0077 21.4199 26.4602 20.2904 29.5427C19.1654 32.6162 19.3049 35.9777 20.6864 38.9972C22.2074 42.2462 25.0154 44.6672 28.3904 45.6482C28.6604 45.7292 28.8179 46.0127 28.7414 46.2872C28.6784 46.5032 28.4759 46.6562 28.2464 46.6562H28.2509Z" fill="#222222"/>
<path d="M31.878 78.9921C30.4155 78.9921 29.0655 78.4296 28.08 77.4036C27.0855 76.3731 26.5725 74.9871 26.631 73.5111L27.9495 40.5126C27.9585 40.2336 28.188 40.0176 28.4625 40.0176C28.6155 40.0221 28.7415 40.0761 28.8405 40.1841C28.935 40.2831 28.98 40.4181 28.9755 40.5531L27.657 73.5516C27.6075 74.7486 28.0215 75.8646 28.818 76.6926C29.6055 77.5161 30.6945 77.9661 31.8735 77.9661C32.985 77.9661 34.0875 77.4846 34.8885 76.6476C35.6985 75.8016 36.135 74.6766 36.09 73.5516L34.7715 40.5531C34.767 40.4181 34.8165 40.2831 34.9065 40.1841C35.001 40.0851 35.127 40.0266 35.262 40.0176C35.5545 40.0176 35.784 40.2246 35.7975 40.5126L37.116 73.5111C37.1745 74.9151 36.6345 76.3146 35.631 77.3586C34.6365 78.3981 33.264 78.9921 31.8735 78.9921H31.878Z" fill="#222222"/>
<path d="M31.878 41.9258C27.288 41.9258 23.553 38.1908 23.553 33.6008C23.553 30.1673 25.6635 27.0848 28.9305 25.7573C28.9935 25.7303 29.0565 25.7168 29.124 25.7168C29.2275 25.7168 29.3265 25.7483 29.412 25.8023C29.556 25.8968 29.637 26.0588 29.637 26.2298V30.8333C29.637 31.1078 29.8575 31.3283 30.132 31.3283H33.7275C33.9975 31.3283 34.2225 31.1078 34.2225 30.8333V26.2298C34.2225 26.0588 34.308 25.9013 34.4475 25.8068C34.533 25.7483 34.632 25.7168 34.74 25.7168C34.803 25.7168 34.866 25.7303 34.9245 25.7528C38.0835 26.9678 40.203 30.1223 40.203 33.6008C40.203 38.1908 36.468 41.9258 31.878 41.9258ZM28.1205 27.4178C28.0305 27.4178 27.918 27.4538 27.8415 27.5033C25.7985 28.9028 24.579 31.1843 24.579 33.6008C24.579 37.6238 27.8505 40.8953 31.8735 40.8953C35.8965 40.8953 39.168 37.6238 39.168 33.6008C39.168 31.1483 37.9935 28.8668 36.0225 27.4943C35.946 27.4403 35.8335 27.4043 35.739 27.4043C35.658 27.4043 35.5815 27.4223 35.514 27.4583C35.3475 27.5483 35.2485 27.7148 35.2485 27.8948V31.8368C35.2485 32.1203 35.019 32.3498 34.7355 32.3498H29.1285C28.845 32.3498 28.6155 32.1203 28.6155 31.8368V27.9083C28.6155 27.7238 28.512 27.5528 28.35 27.4673C28.287 27.4358 28.197 27.4133 28.125 27.4133L28.1205 27.4178Z" fill="#222222"/>
</svg>
