<svg width="90" height="90" viewBox="0 0 90 90" fill="none" xmlns="http://www.w3.org/2000/svg">
<path d="M33.912 81.2736C33.642 81.2736 33.426 81.0576 33.426 80.7876V77.9076C33.426 77.6376 33.642 77.4216 33.912 77.4216H37.4355C39.8475 77.4216 41.814 75.4551 41.814 73.0431V67.9761C41.814 67.7286 41.6115 67.5261 41.364 67.5261H16.839C16.569 67.5261 16.353 67.3101 16.353 67.0401V36.7506C16.353 36.4806 16.569 36.2646 16.839 36.2646H22.896C23.166 36.2646 23.382 36.4806 23.382 36.7506V40.6071C23.382 40.8546 23.5845 41.0571 23.832 41.0571H28.071C28.3185 41.0571 28.521 40.8546 28.521 40.6071V36.3681C28.521 36.1206 28.3185 35.9181 28.071 35.9181H24.399C24.129 35.9181 23.913 35.7021 23.913 35.4321V29.9601C23.913 29.6901 24.129 29.4741 24.399 29.4741H28.071C28.3185 29.4741 28.521 29.2716 28.521 29.0241V23.1516C28.521 22.8816 28.737 22.6656 29.007 22.6656H82.3005C82.5705 22.6656 82.7865 22.8816 82.7865 23.1516V67.0446C82.7865 67.3101 82.566 67.5306 82.3005 67.5306H57.7755C57.528 67.5306 57.3255 67.7331 57.3255 67.9806V73.0476C57.3255 75.4641 59.2875 77.4261 61.704 77.4261H65.2275C65.4975 77.4261 65.7135 77.6421 65.7135 77.9121V80.7921C65.7135 81.0621 65.4975 81.2781 65.2275 81.2781H33.9075L33.912 81.2736ZM34.848 78.3936C34.6005 78.3936 34.398 78.5961 34.398 78.8436V79.8516C34.398 80.0991 34.6005 80.3016 34.848 80.3016H64.2915C64.539 80.3016 64.7415 80.0991 64.7415 79.8516V78.8436C64.7415 78.5961 64.539 78.3936 64.2915 78.3936H61.704C60.2775 78.3936 58.932 77.8356 57.924 76.8231C56.916 75.8106 56.3535 74.4696 56.3535 73.0431V67.9761C56.3535 67.7286 56.151 67.5261 55.9035 67.5261H43.236C42.9885 67.5261 42.786 67.7286 42.786 67.9761V73.0431C42.786 73.0926 42.786 73.1421 42.777 73.1916V73.2951C42.7635 73.4166 42.8085 73.5381 42.894 73.6281C42.9795 73.7181 43.0965 73.7676 43.218 73.7676H51.291C51.561 73.7676 51.777 73.9836 51.777 74.2536C51.777 74.5236 51.561 74.7396 51.291 74.7396H42.813C42.6285 74.7396 42.462 74.8521 42.3945 75.0231C41.5755 77.0706 39.627 78.3936 37.4265 78.3936H34.839H34.848ZM17.775 37.2321C17.5275 37.2321 17.325 37.4346 17.325 37.6821V66.0996C17.325 66.3471 17.5275 66.5496 17.775 66.5496H81.3645C81.612 66.5496 81.8145 66.3471 81.8145 66.0996V24.0786C81.8145 23.8311 81.612 23.6286 81.3645 23.6286H29.943C29.6955 23.6286 29.493 23.8311 29.493 24.0786V29.9511C29.493 30.2211 29.277 30.4371 29.007 30.4371H25.335C25.0875 30.4371 24.885 30.6396 24.885 30.8871V34.4871C24.885 34.7346 25.0875 34.9371 25.335 34.9371H29.007C29.277 34.9371 29.493 35.1531 29.493 35.4231V41.5386C29.493 41.8086 29.277 42.0246 29.007 42.0246H22.896C22.626 42.0246 22.41 41.8086 22.41 41.5386V37.6821C22.41 37.4346 22.2075 37.2321 21.96 37.2321H17.775ZM48.744 64.3131C48.474 64.3131 48.258 64.0971 48.258 63.8271C48.258 63.5571 48.474 63.3411 48.744 63.3411H50.562C50.832 63.3411 51.048 63.5571 51.048 63.8271C51.048 64.0971 50.832 64.3131 50.562 64.3131H48.744ZM20.2725 61.0821C20.0025 61.0821 19.7865 60.8661 19.7865 60.5961C19.7865 60.3261 20.0025 60.1101 20.2725 60.1101H78.8715C79.1415 60.1101 79.3575 60.3261 79.3575 60.5961C79.3575 60.8661 79.1415 61.0821 78.8715 61.0821H20.2725ZM48.4695 56.1051C47.907 56.1051 47.4075 55.7811 47.223 55.2951L46.782 54.1791C46.728 54.0441 46.6155 53.9451 46.476 53.9091C45.3465 53.6166 44.2575 53.1621 43.2495 52.5636C43.1775 52.5231 43.101 52.5006 43.02 52.5006C42.957 52.5006 42.894 52.5141 42.8355 52.5411L41.7285 53.0361C41.58 53.1036 41.418 53.1351 41.2515 53.1351C40.9005 53.1351 40.5585 52.9866 40.2885 52.7166L38.727 51.1551C38.3265 50.7546 38.2005 50.1876 38.403 49.7196L38.898 48.6081C38.9565 48.4731 38.9475 48.3201 38.8755 48.1941C38.2725 47.1771 37.827 46.0926 37.5435 44.9676C37.5075 44.8281 37.4085 44.7111 37.269 44.6571L36.135 44.2161C35.6535 44.0361 35.3295 43.5366 35.3295 42.9741V40.7691C35.3295 40.2066 35.6535 39.7071 36.1395 39.5226L37.2555 39.0951C37.3905 39.0411 37.494 38.9286 37.53 38.7891C37.8225 37.6506 38.2725 36.5616 38.8755 35.5491C38.952 35.4231 38.961 35.2701 38.898 35.1351L38.403 34.0281C38.1915 33.5736 38.3265 32.9841 38.7225 32.5881L40.284 31.0266C40.5405 30.7701 40.887 30.6216 41.238 30.6216C41.409 30.6216 41.571 30.6531 41.7195 30.7206L42.831 31.2021C42.8895 31.2291 42.948 31.2381 43.011 31.2381C43.092 31.2381 43.1685 31.2156 43.2405 31.1751C44.2575 30.5721 45.3465 30.1221 46.467 29.8431C46.6065 29.8071 46.7235 29.7081 46.7775 29.5686L47.223 28.4346C47.403 27.9531 47.889 27.6471 48.465 27.6471H50.67C51.246 27.6471 51.7365 27.9576 51.9165 28.4391L52.344 29.5641C52.398 29.7036 52.515 29.8071 52.6545 29.8431C53.784 30.1221 54.873 30.5721 55.8945 31.1751C55.9665 31.2156 56.043 31.2381 56.124 31.2381C56.187 31.2381 56.2455 31.2246 56.304 31.2021L57.4155 30.7206C57.546 30.6576 57.6945 30.6306 57.861 30.6306C58.23 30.6306 58.608 30.7836 58.8555 31.0266L60.417 32.5881C60.813 32.9841 60.9345 33.5691 60.714 34.0371L60.237 35.1351C60.1785 35.2656 60.1875 35.4186 60.264 35.5446C60.8715 36.5661 61.317 37.6551 61.596 38.7846C61.632 38.9286 61.7355 39.0456 61.875 39.0996L63 39.5271C63.4815 39.7071 63.792 40.1976 63.792 40.7736V42.9786C63.792 43.5546 63.4815 44.0406 63 44.2251L61.8705 44.6661C61.7355 44.7201 61.632 44.8371 61.596 44.9766C61.317 46.1016 60.867 47.1861 60.264 48.2076C60.192 48.3336 60.183 48.4821 60.237 48.6171L60.7185 49.7286C60.93 50.2101 60.8085 50.7726 60.4125 51.1641L58.851 52.7256C58.59 52.9866 58.221 53.1396 57.8655 53.1396C57.699 53.1396 57.5415 53.1081 57.402 53.0406L56.304 52.5501C56.2455 52.5231 56.1825 52.5096 56.1195 52.5096C56.0385 52.5096 55.962 52.5321 55.89 52.5726C54.8775 53.1711 53.784 53.6256 52.65 53.9181C52.5105 53.9541 52.3935 54.0576 52.3395 54.1926L51.912 55.3086C51.732 55.7946 51.2325 56.1141 50.67 56.1141H48.465L48.4695 56.1051ZM43.092 51.4071C43.1865 51.4071 43.2765 51.4341 43.353 51.4836C44.523 52.2396 45.8055 52.7751 47.16 53.0676C47.3175 53.1036 47.448 53.2116 47.5065 53.3646L48.0915 54.8451C48.159 55.0161 48.3255 55.1286 48.51 55.1286H50.625C50.8095 55.1286 50.9805 55.0161 51.0435 54.8406L51.6105 53.3691C51.669 53.2161 51.7995 53.1036 51.9615 53.0676C53.3205 52.7751 54.6075 52.2441 55.782 51.4836C55.863 51.4341 55.953 51.4071 56.0475 51.4071C56.115 51.4071 56.1825 51.4206 56.2455 51.4476L57.7125 52.1046C57.771 52.1316 57.834 52.1451 57.897 52.1451C58.014 52.1451 58.131 52.1001 58.221 52.0101L59.6925 50.5026C59.8185 50.3721 59.8545 50.1786 59.7825 50.0076L59.148 48.5451C59.085 48.3966 59.0985 48.2256 59.184 48.0861C59.949 46.9026 60.4755 45.6246 60.75 44.2836C60.7815 44.1216 60.894 43.9866 61.047 43.9281L62.523 43.3521C62.694 43.2846 62.811 43.1181 62.811 42.9336V40.8051C62.811 40.6161 62.6985 40.4496 62.523 40.3821L61.0515 39.8241C60.894 39.7656 60.7815 39.6306 60.7455 39.4641C60.4755 38.1186 59.949 36.8361 59.1795 35.6481C59.0895 35.5131 59.076 35.3376 59.1435 35.1891L59.778 33.7266C59.85 33.5556 59.814 33.3576 59.6835 33.2271L58.1985 31.7421C58.113 31.6566 57.996 31.6116 57.879 31.6116C57.8205 31.6116 57.7575 31.6251 57.699 31.6476L56.2365 32.2821C56.1735 32.3091 56.1105 32.3226 56.043 32.3226C55.9485 32.3226 55.8585 32.2956 55.7775 32.2461C54.594 31.4811 53.307 30.9546 51.9615 30.6801C51.795 30.6486 51.6645 30.5316 51.606 30.3741L51.048 28.9071C50.9805 28.7316 50.814 28.6146 50.6295 28.6146H48.501C48.3165 28.6146 48.15 28.7271 48.0825 28.9026L47.5065 30.3831C47.448 30.5361 47.313 30.6486 47.151 30.6801C45.81 30.9546 44.532 31.4811 43.353 32.2461C43.272 32.2956 43.182 32.3226 43.0875 32.3226C43.02 32.3226 42.957 32.3091 42.894 32.2821L41.4315 31.6476C41.373 31.6206 41.3145 31.6116 41.2515 31.6116C41.1345 31.6116 41.0175 31.6566 40.932 31.7421L39.4335 33.2406C39.303 33.3711 39.2625 33.5736 39.339 33.7446L39.9825 35.1846C40.05 35.3331 40.0365 35.5086 39.9465 35.6481C39.186 36.8226 38.655 38.1096 38.3625 39.4686C38.3265 39.6306 38.214 39.7611 38.061 39.8196L36.5895 40.3821C36.414 40.4496 36.3015 40.6161 36.3015 40.8006V42.9156C36.3015 43.1001 36.414 43.2666 36.5895 43.3341L38.088 43.9191C38.241 43.9776 38.3535 44.1126 38.385 44.2746C38.6595 45.6111 39.186 46.8936 39.951 48.0771C40.041 48.2166 40.0545 48.3876 39.987 48.5406L39.3435 49.9806C39.267 50.1516 39.303 50.3496 39.438 50.4801L40.9455 51.9921C41.031 52.0776 41.148 52.1226 41.265 52.1226C41.328 52.1226 41.391 52.1091 41.4495 52.0821L42.8895 51.4386C42.9525 51.4116 43.02 51.3936 43.0875 51.3936L43.092 51.4071ZM49.572 49.7736C45.216 49.7736 41.67 46.2276 41.67 41.8716C41.67 37.5156 45.216 33.9696 49.572 33.9696C53.928 33.9696 57.474 37.5156 57.474 41.8716C57.474 46.2276 53.928 49.7736 49.572 49.7736ZM49.572 34.9371C45.7515 34.9371 42.642 38.0466 42.642 41.8671C42.642 45.6876 45.7515 48.7971 49.572 48.7971C53.3925 48.7971 56.502 45.6876 56.502 41.8671C56.502 38.0466 53.3925 34.9371 49.572 34.9371ZM31.8015 33.8031C31.5315 33.8031 31.3155 33.5871 31.3155 33.3171V29.1861C31.3155 28.9161 31.5315 28.7001 31.8015 28.7001H35.9325C36.2025 28.7001 36.4185 28.9161 36.4185 29.1861V33.3171C36.4185 33.5871 36.2025 33.8031 35.9325 33.8031H31.8015ZM32.7375 29.6721C32.49 29.6721 32.2875 29.8746 32.2875 30.1221V32.3811C32.2875 32.6286 32.49 32.8311 32.7375 32.8311H34.9965C35.244 32.8311 35.4465 32.6286 35.4465 32.3811V30.1221C35.4465 29.8746 35.244 29.6721 34.9965 29.6721H32.7375ZM11.9025 31.6341C11.6325 31.6341 11.4165 31.4181 11.4165 31.1481V26.2476C11.4165 25.9776 11.6325 25.7616 11.9025 25.7616H16.785C17.055 25.7616 17.271 25.9776 17.271 26.2476V31.1481C17.271 31.4181 17.055 31.6341 16.785 31.6341H11.9025ZM12.8385 26.7336C12.591 26.7336 12.3885 26.9361 12.3885 27.1836V30.2121C12.3885 30.4596 12.591 30.6621 12.8385 30.6621H15.849C16.0965 30.6621 16.299 30.4596 16.299 30.2121V27.1836C16.299 27.0621 16.254 26.9496 16.1685 26.8641C16.083 26.7786 15.9705 26.7336 15.849 26.7336H12.8385ZM21.393 27.3366C21.123 27.3366 20.907 27.1206 20.907 26.8506V22.7196C20.907 22.4496 21.123 22.2336 21.393 22.2336H25.542C25.812 22.2336 26.028 22.4541 26.028 22.7196V26.8506C26.028 27.1206 25.812 27.3366 25.542 27.3366H21.393ZM22.329 23.2101C22.0815 23.2101 21.879 23.4126 21.879 23.6601V25.9191C21.879 26.1666 22.0815 26.3691 22.329 26.3691H24.606C24.8535 26.3691 25.056 26.1666 25.056 25.9191V23.6601C25.056 23.4126 24.8535 23.2101 24.606 23.2101H22.329ZM13.644 21.4821C13.374 21.4821 13.158 21.2661 13.158 20.9961V17.6931C13.158 17.4456 12.9555 17.2431 12.708 17.2431H7.69498C7.42498 17.2431 7.20898 17.0271 7.20898 16.7571V9.21061C7.20898 8.94061 7.42498 8.72461 7.69498 8.72461H15.2415C15.5115 8.72461 15.7275 8.94061 15.7275 9.21061V14.7366C15.7275 14.9841 15.93 15.1866 16.1775 15.1866H18.9675C19.2375 15.1866 19.4535 15.4026 19.4535 15.6726V20.9961C19.4535 21.2661 19.2375 21.4821 18.9675 21.4821H13.644ZM8.63548 9.69661C8.38798 9.69661 8.18548 9.89911 8.18548 10.1466V15.8166C8.18548 16.0641 8.38798 16.2666 8.63548 16.2666H13.6485C13.9185 16.2666 14.1345 16.4871 14.1345 16.7526V20.0556C14.1345 20.3031 14.337 20.5056 14.5845 20.5056H18.036C18.2835 20.5056 18.486 20.3031 18.486 20.0556V16.6041C18.486 16.3566 18.2835 16.1541 18.036 16.1541H15.246C14.976 16.1541 14.76 15.9381 14.76 15.6681V10.1421C14.76 9.89461 14.5575 9.69211 14.31 9.69211H8.63548V9.69661Z" fill="#222222"/>
</svg>
