<svg width="90" height="90" viewBox="0 0 90 90" fill="none" xmlns="http://www.w3.org/2000/svg">
<path d="M39.1816 72.9725C38.8981 72.9725 38.6641 72.743 38.6641 72.455C38.6641 72.167 38.8936 71.9375 39.1816 71.9375H43.0156C43.2991 71.9375 43.5331 72.167 43.5331 72.455C43.5331 72.743 43.3036 72.9725 43.0156 72.9725H39.1816Z" fill="#222222"/>
<path d="M34.3215 18.617C34.038 18.617 33.804 18.3875 33.804 18.0995C33.804 17.8115 34.0335 17.582 34.3215 17.582H47.8755C48.159 17.582 48.393 17.8115 48.393 18.0995C48.393 18.3875 48.1635 18.617 47.8755 18.617H34.3215Z" fill="#222222"/>
<path d="M60.9076 35.761C60.4486 35.761 59.9941 35.5765 59.6566 35.257C59.3056 34.924 59.1121 34.465 59.1121 33.97V30.334C59.1121 29.227 60.0436 28.543 60.9076 28.543C61.2676 28.543 61.6231 28.6555 61.9291 28.876L64.5031 30.694C64.9801 31.0315 65.2546 31.5625 65.2546 32.152C65.2546 32.7415 64.9801 33.2725 64.5031 33.61L61.9291 35.428C61.6231 35.644 61.2676 35.761 60.9076 35.761ZM60.8986 29.5825C60.4846 29.5825 60.1471 29.92 60.1471 30.3385V33.9745C60.1471 34.3885 60.4846 34.7305 60.8986 34.7305C61.0561 34.7305 61.2046 34.681 61.3351 34.591L63.9091 32.773C64.1116 32.629 64.2286 32.404 64.2286 32.1565C64.2286 31.909 64.1116 31.684 63.9136 31.5445L61.3396 29.7265C61.2136 29.6365 61.0606 29.587 60.9031 29.587L60.8986 29.5825Z" fill="#222222"/>
<path d="M18.5175 46.201C18.234 46.201 18 45.9715 18 45.6835C18 45.3955 18.2295 45.166 18.5175 45.166H24.417C24.7005 45.166 24.9345 45.3955 24.9345 45.6835C24.9345 45.9715 24.705 46.201 24.417 46.201H18.5175Z" fill="#222222"/>
<path d="M18.5175 50.7147C18.234 50.7147 18 50.4852 18 50.1972C18 49.9092 18.2295 49.6797 18.5175 49.6797H21.465C21.7485 49.6797 21.9825 49.9092 21.9825 50.1972C21.9825 50.4852 21.7485 50.7147 21.465 50.7147H18.5175Z" fill="#222222"/>
<path d="M26.6534 78.2682C23.5079 78.2682 20.9474 75.7122 20.9474 72.5757V58.1622C20.9474 57.8832 20.7404 57.6537 20.4614 57.6267C15.4844 57.1137 11.7314 52.9512 11.7314 47.9472C11.7314 42.9432 15.4844 38.7807 20.4614 38.2677C20.7359 38.2407 20.9474 38.0112 20.9474 37.7322V17.4327C20.9474 14.2917 23.5079 11.7402 26.6534 11.7402H55.5479C58.6934 11.7402 61.2539 14.2962 61.2539 17.4327V21.9102C61.2539 22.0542 61.3124 22.1982 61.4204 22.2972C61.5194 22.3962 61.6544 22.4502 61.7939 22.4502C61.7939 22.4502 61.9244 22.4457 61.9874 22.4412C62.0549 22.4367 62.1224 22.4322 62.1854 22.4322C67.5539 22.4322 71.9189 26.7972 71.9189 32.1657C71.9189 37.5342 67.5539 41.8992 62.1854 41.8992C62.1179 41.8992 62.0549 41.8947 61.9874 41.8902C61.9244 41.8902 61.7939 41.8812 61.7939 41.8812C61.6544 41.8812 61.5194 41.9352 61.4159 42.0342C61.3124 42.1332 61.2539 42.2772 61.2539 42.4212V60.8127C61.2539 61.0242 61.3754 61.2177 61.5689 61.3032C61.6274 61.3302 61.7309 61.3527 61.7939 61.3527C61.9244 61.3527 62.0504 61.3077 62.1494 61.2222C63.9269 59.6697 66.1994 58.8192 68.5394 58.8192C73.9079 58.8192 78.2729 63.1842 78.2729 68.5527C78.2729 73.9212 73.9079 78.2862 68.5394 78.2862C65.8259 78.2862 63.2969 77.1837 61.4294 75.1812C61.3259 75.0732 61.1819 75.0102 61.0334 75.0102C61.0154 75.0102 60.9884 75.0102 60.9749 75.0102C60.7949 75.0327 60.6464 75.1362 60.5609 75.2892C59.5529 77.1387 57.6359 78.2862 55.5524 78.2862H26.6534V78.2682ZM22.5224 67.6797C22.2254 67.6797 21.9824 67.9227 21.9824 68.2197V72.5712C21.9824 75.1407 24.0794 77.2332 26.6534 77.2332H55.5479C57.6854 77.2332 59.5889 75.7167 60.0749 73.6287C60.1064 73.4982 60.0884 73.3632 60.0209 73.2462C59.2199 71.8062 58.7969 70.1727 58.7969 68.5302C58.7969 68.4852 58.7969 68.4357 58.8059 68.3907C58.8059 68.3412 58.8149 68.2872 58.8149 68.2332C58.8194 68.0892 58.7654 67.9452 58.6619 67.8417C58.5629 67.7382 58.4189 67.6797 58.2749 67.6797H22.5224ZM68.5349 59.8317C63.7334 59.8317 59.8274 63.7332 59.8274 68.5302C59.8274 73.3272 63.7334 77.2287 68.5349 77.2287C73.3364 77.2287 77.2334 73.3272 77.2334 68.5302C77.2334 63.7332 73.3319 59.8317 68.5349 59.8317ZM26.6534 12.7662C24.0794 12.7662 21.9824 14.8587 21.9824 17.4282V37.7277C21.9824 38.0067 22.1894 38.2362 22.4684 38.2632C27.4499 38.7717 31.2074 42.9342 31.2074 47.9472C31.2074 52.9602 27.4499 57.1227 22.4684 57.6312C22.1939 57.6582 21.9824 57.8877 21.9824 58.1667V66.1137C21.9824 66.4107 22.2254 66.6537 22.5224 66.6537H58.5584C58.8059 66.6537 59.0219 66.4827 59.0849 66.2442C59.3099 65.3217 59.6654 64.4397 60.1469 63.6252C60.1964 63.5397 60.2234 63.4452 60.2234 63.3507V42.1107C60.2234 41.8632 60.0569 41.6472 59.8139 41.5887C55.4759 40.4952 52.4474 36.6207 52.4474 32.1612C52.4474 27.7017 55.4759 23.8272 59.8139 22.7337C60.0524 22.6707 60.2234 22.4592 60.2234 22.2117V17.4327C60.2234 14.8632 58.1264 12.7707 55.5524 12.7707H26.6534V12.7662ZM21.4739 39.2442C16.6724 39.2442 12.7664 43.1457 12.7664 47.9427C12.7664 52.7397 16.6724 56.6412 21.4739 56.6412C26.2754 56.6412 30.1724 52.7397 30.1724 47.9427C30.1724 43.1457 26.2709 39.2442 21.4739 39.2442ZM62.1854 23.4537C57.3839 23.4537 53.4779 27.3552 53.4779 32.1522C53.4779 36.9492 57.3839 40.8507 62.1854 40.8507C66.9869 40.8507 70.8839 36.9492 70.8839 32.1522C70.8839 27.3552 66.9824 23.4537 62.1854 23.4537Z" fill="#222222"/>
<path d="M63.873 72.0093C63.765 72.0093 63.657 71.9733 63.5715 71.9103C63.459 71.8293 63.387 71.7078 63.3645 71.5728C63.342 71.4378 63.378 71.2983 63.459 71.1903L65.961 67.7838C66.0465 67.6668 66.2175 67.5903 66.4245 67.5723C66.5415 67.5723 66.699 67.6533 66.7935 67.7838L67.6755 68.9763C67.779 69.1113 67.941 69.1968 68.1075 69.1968C68.274 69.1968 68.4405 69.1158 68.544 68.9763L70.254 66.6588C70.353 66.5283 70.506 66.4473 70.668 66.4473C70.83 66.4473 70.9875 66.5238 71.082 66.6588L74.4075 71.1678C74.4885 71.2803 74.5245 71.4153 74.502 71.5503C74.4795 71.6853 74.4075 71.8068 74.2995 71.8878C74.2095 71.9553 74.106 71.9913 73.9935 71.9913C73.8315 71.9913 73.674 71.9148 73.575 71.7798L71.1 68.4228C70.9965 68.2833 70.8345 68.2023 70.6635 68.2023C70.4925 68.2023 70.3305 68.2833 70.227 68.4228L68.5215 70.7403C68.427 70.8708 68.2695 70.9518 68.1075 70.9518C67.9455 70.9518 67.788 70.8753 67.6935 70.7403L66.8115 69.5478C66.708 69.4128 66.546 69.3273 66.3795 69.3273C66.2085 69.3273 66.0465 69.4083 65.9475 69.5478L64.2915 71.8023C64.1925 71.9373 64.044 72.0138 63.873 72.0138V72.0093Z" fill="#222222"/>
<path d="M67.869 64.9253C67.7295 64.9253 67.599 64.8713 67.5045 64.7723C67.41 64.6733 67.3515 64.5473 67.356 64.4078V64.0253C67.356 63.7418 67.5855 63.5078 67.8735 63.5078C68.1615 63.5078 68.391 63.7373 68.391 64.0253V64.4078C68.391 64.6913 68.1615 64.9253 67.8735 64.9253H67.869Z" fill="#222222"/>
</svg>
