<svg width="90" height="90" viewBox="0 0 90 90" fill="none" xmlns="http://www.w3.org/2000/svg">
<path d="M16.452 76.6084C15.6915 76.6084 14.9805 76.2709 14.499 75.6814C14.0175 75.0919 13.8285 74.3269 13.977 73.5799L15.021 68.4139C15.507 66.3979 16.5465 64.5439 18.027 63.0769C19.359 61.7314 21.024 60.7414 22.851 60.2149L38.871 55.5844C38.9115 55.5709 38.952 55.5664 38.9925 55.5664C39.1815 55.5664 39.348 55.6924 39.3975 55.8769C39.429 55.9849 39.4155 56.1019 39.3615 56.2009C39.3075 56.2999 39.2175 56.3719 39.105 56.4034L23.085 61.0294C21.402 61.5154 19.863 62.4289 18.63 63.6754C17.262 65.0299 16.299 66.7309 15.8535 68.5939L14.814 73.7464C14.715 74.2414 14.841 74.7499 15.1605 75.1414C15.48 75.5329 15.9525 75.7579 16.452 75.7579H71.8785C72.3915 75.7579 72.8505 75.5419 73.1745 75.1459C73.494 74.7544 73.62 74.2459 73.5165 73.7509L72.477 68.5804C71.5905 64.9534 68.823 62.0689 65.2455 61.0339L49.2345 56.4079C49.0095 56.3404 48.879 56.1064 48.942 55.8814C48.996 55.6969 49.158 55.5709 49.347 55.5709C49.3875 55.5709 49.428 55.5754 49.4685 55.5889L65.4795 60.2194C69.3495 61.3399 72.3465 64.4764 73.305 68.4004L74.349 73.5844C74.4975 74.3359 74.3085 75.1009 73.827 75.6904C73.3455 76.2799 72.6345 76.6129 71.874 76.6129H16.452V76.6084Z" fill="#222222"/>
<path d="M44.1629 60.4618C42.6194 60.4618 41.1704 59.8588 40.0769 58.7698C38.9924 57.6853 38.3984 56.2453 38.3984 54.7108V50.6248C38.3984 50.4763 38.4749 50.3368 38.6054 50.2603C38.6729 50.2198 38.7494 50.1973 38.8259 50.1973C38.8934 50.1973 38.9609 50.2153 39.0239 50.2468C40.6889 51.1108 42.4169 51.5518 44.1674 51.5518C45.9179 51.5518 47.6459 51.1108 49.3109 50.2468C49.3694 50.2153 49.4414 50.2018 49.5089 50.2018C49.5854 50.2018 49.6619 50.2243 49.7294 50.2648C49.8554 50.3413 49.9319 50.4808 49.9319 50.6293V54.7153C49.9319 57.8878 47.3444 60.4708 44.1629 60.4708V60.4618ZM39.8114 51.5833C39.6989 51.5833 39.5864 51.6148 39.4919 51.6823C39.3389 51.7858 39.2489 51.9613 39.2489 52.1458V54.7063C39.2489 56.0158 39.7574 57.2398 40.6799 58.1623C41.6114 59.0938 42.8489 59.6068 44.1629 59.6068C46.8719 59.6068 49.0769 57.4063 49.0769 54.7063V52.1458C49.0769 51.9613 48.9869 51.7858 48.8339 51.6823C48.7394 51.6148 48.6269 51.5833 48.5144 51.5833C48.4469 51.5833 48.3794 51.5968 48.3119 51.6193C46.9574 52.1368 45.5624 52.3978 44.1629 52.3978C42.7634 52.3978 41.3639 52.1368 40.0139 51.6193C39.9509 51.5923 39.8789 51.5833 39.8114 51.5833Z" fill="#222222"/>
<path d="M44.1719 52.3939C43.6274 52.3939 43.0649 52.3489 42.3989 52.2589C42.0794 52.2004 41.7959 52.1464 41.5124 52.0789L40.4054 51.7594C40.0184 51.6154 39.6404 51.4759 39.2849 51.3139C39.0824 51.2284 38.8754 51.1249 38.6684 51.0169C34.7669 49.0234 31.2659 44.9914 29.0654 39.9514C29.0204 39.8479 29.0159 39.7309 29.0609 39.6274C29.1014 39.5194 29.1824 39.4384 29.2859 39.3934C29.3399 39.3709 29.3984 39.3574 29.4569 39.3574C29.6279 39.3574 29.7809 39.4564 29.8484 39.6139C31.9724 44.4739 35.3159 48.3484 39.0284 50.2429L39.1094 50.2834C39.2939 50.3779 39.4649 50.4589 39.6359 50.5354C39.9599 50.6884 40.2884 50.8099 40.6079 50.9269C40.6079 50.9269 40.6889 50.9539 40.7069 50.9629C40.7654 50.9764 40.8779 51.0169 40.9859 51.0484L41.7374 51.2554C41.9804 51.3139 42.2504 51.3634 42.5339 51.4174C43.1729 51.5074 43.6679 51.5434 44.1629 51.5434C44.6579 51.5434 45.1979 51.5029 45.8279 51.4129L45.9494 51.3904C46.1924 51.3454 46.4174 51.3004 46.6334 51.2509C46.9754 51.1609 47.4074 51.0439 47.8124 50.8954C47.9834 50.8414 48.1319 50.7829 48.2939 50.7109L48.3614 50.6839C48.5549 50.6029 48.7259 50.5309 48.8969 50.4544C48.9194 50.4454 48.9374 50.4319 48.9599 50.4229L49.3154 50.2474C53.0099 48.3574 56.3489 44.4829 58.4999 39.6139C58.5674 39.4609 58.7204 39.3619 58.8914 39.3619C58.9499 39.3619 59.0084 39.3754 59.0624 39.3979C59.2784 39.4924 59.3729 39.7444 59.2784 39.9604C57.0509 45.0094 53.5634 49.0324 49.7069 51.0079L49.4234 51.1429C49.4234 51.1429 49.3919 51.1609 49.3739 51.1699C49.0904 51.3094 48.8609 51.4039 48.6314 51.4984C48.4514 51.5794 48.2669 51.6514 48.0779 51.7099C47.7449 51.8314 47.3444 51.9529 46.8314 52.0834C46.5839 52.1419 46.3319 52.1914 46.0889 52.2364C46.0619 52.2409 45.9629 52.2589 45.9314 52.2634C45.2699 52.3534 44.7074 52.3984 44.1629 52.3984L44.1719 52.3939Z" fill="#222222"/>
<path d="M60.3496 26.5635C60.1561 26.5635 59.9896 26.433 59.9401 26.2485C58.0141 19.1835 51.5296 14.247 44.1721 14.247C36.8146 14.247 30.3436 19.179 28.4041 26.235C28.3546 26.4195 28.1836 26.55 27.9946 26.55C27.9586 26.55 27.9181 26.5455 27.8821 26.5365C27.7741 26.505 27.6796 26.433 27.6256 26.3385C27.5716 26.2395 27.5536 26.1225 27.5851 26.0145C29.6281 18.585 36.4501 13.3965 44.1766 13.3965C51.9031 13.3965 58.7386 18.5895 60.7681 26.028C60.7996 26.136 60.7816 26.253 60.7276 26.352C60.6691 26.451 60.5791 26.523 60.4711 26.55C60.4351 26.559 60.3946 26.5635 60.3586 26.5635H60.3496Z" fill="#222222"/>
<path d="M49.113 40.2113C48.537 40.2113 47.9925 39.9908 47.6235 39.6083C47.304 39.2753 47.142 38.8523 47.16 38.4068C47.178 37.9613 46.7955 37.5653 46.251 37.4618C45.396 37.3043 44.7705 37.2368 44.163 37.2368C43.5555 37.2368 42.93 37.3043 42.075 37.4618C41.535 37.5653 41.1525 37.9568 41.166 38.4023C41.184 38.8523 41.0175 39.2753 40.7025 39.6083C40.3335 39.9908 39.789 40.2113 39.213 40.2113H29.178C27.9135 40.2113 26.82 39.3113 26.5725 38.0738L24.786 29.0558C24.507 27.6518 25.4025 26.2568 26.784 25.9463C32.4405 24.6728 38.286 24.0293 44.163 24.0293C50.04 24.0293 55.8855 24.6728 61.542 25.9463C62.9235 26.2568 63.819 27.6518 63.54 29.0558L61.7535 38.0738C61.506 39.3113 60.4125 40.2113 59.148 40.2113H49.113ZM44.163 36.3818C44.8245 36.3818 45.495 36.4538 46.404 36.6248C47.3715 36.8048 48.0465 37.5698 48.0105 38.4428C48.0105 38.7263 48.132 38.9108 48.24 39.0188C48.447 39.2348 48.7665 39.3608 49.1175 39.3608H59.1525C60.0075 39.3608 60.7545 38.7488 60.921 37.9118L62.7075 28.8938C62.8965 27.9398 62.289 26.9903 61.3575 26.7833C55.7595 25.5233 49.977 24.8888 44.1675 24.8888C38.358 24.8888 32.571 25.5278 26.973 26.7833C26.0415 26.9903 25.434 27.9398 25.623 28.8938L27.4095 37.9118C27.576 38.7533 28.323 39.3653 29.178 39.3653H39.213C39.5595 39.3653 39.879 39.2393 40.0905 39.0233C40.194 38.9153 40.32 38.7308 40.32 38.4698C40.284 37.5743 40.959 36.8093 41.9265 36.6338C42.8355 36.4628 43.506 36.3908 44.1675 36.3908L44.163 36.3818Z" fill="#222222"/>
<path d="M28.9755 66.1809C24.6555 66.1809 20.898 65.3394 18.1125 63.7419C16.1415 62.6349 14.652 61.1454 13.6755 59.3139C11.718 55.6464 12.051 51.0114 14.6475 45.9039C14.7195 45.7599 14.868 45.6699 15.03 45.6699C15.0975 45.6699 15.1605 45.6834 15.219 45.7149C15.3225 45.7689 15.399 45.8544 15.435 45.9624C15.471 46.0704 15.462 46.1874 15.408 46.2864C12.942 51.1329 12.6045 55.4979 14.427 58.9044C15.327 60.5919 16.7085 61.9644 18.5355 62.9949C21.267 64.5564 24.7905 65.3529 29.0025 65.3529C36.378 65.3529 44.991 62.9274 53.253 58.5219C53.901 58.1799 54.567 57.8109 55.2825 57.3969C58.437 55.5744 61.407 53.4999 64.1115 51.2274C64.2105 51.1464 64.314 51.1284 64.386 51.1284C64.512 51.1284 64.6335 51.1824 64.7145 51.2814C64.8675 51.4614 64.8405 51.7314 64.6605 51.8799C61.9155 54.1839 58.905 56.2899 55.71 58.1349C55.0215 58.5354 54.3285 58.9179 53.6535 59.2779C45.306 63.7284 36.54 66.1764 28.9755 66.1764V66.1809Z" fill="#222222"/>
<path d="M20.0789 39.3158C19.9754 39.3158 19.8764 39.2798 19.7954 39.2078C19.7099 39.1313 19.6604 39.0278 19.6514 38.9153C19.6424 38.8028 19.6829 38.6903 19.7549 38.6048C21.4514 36.6788 23.4719 34.7483 25.7669 32.8718C25.8659 32.7908 25.9694 32.7773 26.0369 32.7773C26.1674 32.7773 26.2844 32.8358 26.3654 32.9348C26.5139 33.1148 26.4869 33.3848 26.3024 33.5333C24.0434 35.3828 22.0544 37.2773 20.3939 39.1673C20.3129 39.2618 20.1959 39.3113 20.0744 39.3113L20.0789 39.3158Z" fill="#222222"/>
<path d="M70.5825 45.7656C70.5105 45.7656 70.407 45.7476 70.3125 45.6666C70.1325 45.5181 70.1055 45.2481 70.254 45.0681C76.0005 38.1066 77.8095 31.3386 75.2175 26.5011C73.017 22.3566 67.8465 20.0751 60.6645 20.0751C59.6565 20.0751 58.608 20.1201 57.537 20.2101C57.2895 20.2101 57.096 20.0346 57.078 19.8231C57.069 19.7106 57.105 19.5981 57.177 19.5126C57.249 19.4271 57.3525 19.3731 57.465 19.3641C58.5495 19.2696 59.6205 19.2246 60.6465 19.2246C68.1705 19.2246 73.6155 21.6681 75.969 26.1051C78.732 31.2666 76.887 38.3766 70.911 45.6171C70.83 45.7161 70.7085 45.7701 70.5825 45.7701V45.7656Z" fill="#222222"/>
<path d="M67.6936 53.4869C65.0251 53.4869 62.8516 51.3134 62.8516 48.6449C62.8516 45.9764 65.0251 43.8164 67.6936 43.8164C70.3621 43.8164 72.5221 45.9809 72.5221 48.6449C72.5221 51.3089 70.3576 53.4869 67.6936 53.4869ZM67.6936 44.6714C65.4931 44.6714 63.7021 46.4534 63.7021 48.6449C63.7021 50.8364 65.4931 52.6364 67.6936 52.6364C69.8941 52.6364 71.6671 50.8454 71.6671 48.6449C71.6671 46.4444 69.8851 44.6714 67.6936 44.6714Z" fill="#222222"/>
<path d="M17.5725 47.3482C14.904 47.3482 12.7305 45.1747 12.7305 42.5062C12.7305 39.8377 14.904 37.6777 17.5725 37.6777C20.241 37.6777 22.401 39.8422 22.401 42.5062C22.401 45.1702 20.2365 47.3482 17.5725 47.3482ZM17.5725 38.5327C15.372 38.5327 13.581 40.3147 13.581 42.5062C13.581 44.6977 15.372 46.4977 17.5725 46.4977C19.773 46.4977 21.546 44.7067 21.546 42.5062C21.546 40.3057 19.764 38.5327 17.5725 38.5327Z" fill="#222222"/>
<path d="M13.3515 28.2328C13.14 28.2328 12.96 28.0752 12.9285 27.8637C12.5145 24.9027 13.284 21.9597 15.093 19.5657C16.902 17.1762 19.5255 15.6328 22.4865 15.2233C22.509 15.2233 22.5315 15.2188 22.554 15.2188C22.7655 15.2188 22.941 15.3717 22.968 15.5877C22.9815 15.7002 22.9545 15.8128 22.887 15.9028C22.8195 15.9928 22.7205 16.0512 22.608 16.0692C19.872 16.4517 17.4465 17.8738 15.777 20.0833C14.1075 22.2928 13.3965 25.0153 13.779 27.7467C13.8105 27.9808 13.6485 28.1967 13.4145 28.2282C13.392 28.2282 13.374 28.2282 13.356 28.2282L13.3515 28.2328Z" fill="#222222"/>
<path d="M19.8854 27.3249C19.6739 27.3249 19.4939 27.1674 19.4624 26.9559C19.2914 25.7364 19.6064 24.5214 20.3489 23.5404C21.0914 22.5594 22.1714 21.9249 23.3909 21.7539C23.4089 21.7539 23.4314 21.7539 23.4539 21.7539C23.6699 21.7539 23.8454 21.9069 23.8724 22.1229C23.9039 22.3569 23.7419 22.5729 23.5079 22.6044C22.5134 22.7439 21.6314 23.2614 21.0284 24.0624C20.4209 24.8634 20.1644 25.8534 20.3039 26.8479C20.3354 27.0819 20.1734 27.2979 19.9394 27.3294C19.9214 27.3294 19.8989 27.3294 19.8809 27.3294L19.8854 27.3249Z" fill="#222222"/>
</svg>
