<svg width="30" height="30" viewBox="0 0 30 30" fill="none" xmlns="http://www.w3.org/2000/svg">
<g clip-path="url(#clip0_3831_710)">
<path d="M29.1504 10.957C28.8281 11.2793 28.5156 11.5723 28.2129 11.8359C27.9102 12.0996 27.5879 12.3291 27.2461 12.5244C26.9043 12.7197 26.5479 12.8613 26.1768 12.9492C25.8057 13.0371 25.3711 13.0908 24.873 13.1104C24.541 13.1104 24.2236 13.0811 23.9209 13.0225L18.3691 18.5742C18.4961 18.9453 18.5889 19.3262 18.6475 19.7168C18.7061 20.1074 18.7354 20.498 18.7354 20.8887C18.7354 21.5234 18.6719 22.0996 18.5449 22.6172C18.418 23.1348 18.2373 23.623 18.0029 24.082C17.7686 24.541 17.4756 24.9756 17.124 25.3857C16.7725 25.7959 16.3867 26.2207 15.9668 26.6602L10.3125 21.0059L1.99219 29.3408L0 30L0.65918 28.0078L8.99414 19.6875L3.33984 14.0332C3.76953 13.6035 4.18945 13.2178 4.59961 12.876C5.00977 12.5342 5.44434 12.2461 5.90332 12.0117C6.3623 11.7773 6.85059 11.5918 7.36816 11.4551C7.88574 11.3184 8.4668 11.2549 9.11133 11.2646C9.50195 11.2646 9.89258 11.2939 10.2832 11.3525C10.6738 11.4111 11.0547 11.5039 11.4258 11.6309L16.9775 6.0791C16.9189 5.77637 16.8896 5.45898 16.8896 5.12695C16.8896 4.64844 16.9385 4.21875 17.0361 3.83789C17.1338 3.45703 17.2803 3.0957 17.4756 2.75391C17.6709 2.41211 17.8955 2.09473 18.1494 1.80176C18.4033 1.50879 18.7012 1.19141 19.043 0.849609L29.1504 10.957Z" fill="#33E4FF"/>
</g>
<defs>
<clipPath id="clip0_3831_710">
<rect width="30" height="30" fill="white"/>
</clipPath>
</defs>
</svg>
