<svg width="90" height="90" viewBox="0 0 90 90" fill="none" xmlns="http://www.w3.org/2000/svg">
<path d="M16.8525 68.8502C16.524 68.8502 16.2585 68.5712 16.2585 68.2292V36.1757C16.2585 35.8337 16.524 35.5547 16.8525 35.5547C17.181 35.5547 17.4465 35.8337 17.4465 36.1757V68.2292C17.4465 68.5712 17.181 68.8502 16.8525 68.8502Z" fill="#222222"/>
<path d="M35.5095 29.7095C35.1585 29.7095 34.875 29.444 34.875 29.1155C34.875 28.787 35.1585 28.5215 35.5095 28.5215H54.936C55.287 28.5215 55.5705 28.787 55.5705 29.1155C55.5705 29.444 55.287 29.7095 54.936 29.7095H35.5095Z" fill="#222222"/>
<path d="M73.5974 68.8502C73.2689 68.8502 73.0034 68.5712 73.0034 68.2292V36.1757C73.0034 35.8337 73.2689 35.5547 73.5974 35.5547C73.9259 35.5547 74.1914 35.8337 74.1914 36.1757V68.2292C74.1914 68.5712 73.9259 68.8502 73.5974 68.8502Z" fill="#222222"/>
<path d="M16.8525 77.3691C14.022 77.3691 11.718 75.0651 11.718 72.2346C11.718 71.9061 11.9835 71.6406 12.312 71.6406H37.278C37.6065 71.6406 37.872 71.9061 37.872 72.2346C37.872 72.5631 37.6065 72.8286 37.278 72.8286H13.644C13.4685 72.8286 13.302 72.9141 13.203 73.0581C13.104 73.2021 13.077 73.3866 13.1355 73.5486C13.6935 75.1236 15.1875 76.1766 16.8525 76.1766H73.593C75.2625 76.1766 76.7565 75.1191 77.31 73.5486C77.3685 73.3821 77.3415 73.1976 77.2425 73.0581C77.1435 72.9141 76.977 72.8286 76.8015 72.8286H53.163C52.8345 72.8286 52.569 72.5631 52.569 72.2346C52.569 71.9061 52.8345 71.6406 53.163 71.6406H78.129C78.4575 71.6406 78.723 71.9061 78.723 72.2346C78.723 75.0651 76.419 77.3691 73.5885 77.3691H16.8525Z" fill="#222222"/>
<path d="M67.923 34.245C61.965 34.245 57.114 29.3985 57.114 23.436C57.114 17.4735 61.9605 12.627 67.923 12.627C73.8855 12.627 78.732 17.4735 78.732 23.436C78.732 29.3985 73.8855 34.245 67.923 34.245ZM67.923 13.8195C62.6175 13.8195 58.302 18.135 58.302 23.4405C58.302 28.746 62.6175 33.0615 67.923 33.0615C73.2285 33.0615 77.544 28.746 77.544 23.4405C77.544 18.135 73.2285 13.8195 67.923 13.8195Z" fill="#222222"/>
<path d="M22.527 34.245C16.569 34.245 11.718 29.3985 11.718 23.436C11.718 17.4735 16.5645 12.627 22.527 12.627C28.4895 12.627 33.336 17.4735 33.336 23.436C33.336 29.3985 28.4895 34.245 22.527 34.245ZM22.527 13.8195C17.2215 13.8195 12.906 18.135 12.906 23.4405C12.906 28.746 17.2215 33.0615 22.527 33.0615C27.8325 33.0615 32.148 28.746 32.148 23.4405C32.148 18.135 27.8325 13.8195 22.527 13.8195Z" fill="#222222"/>
<path d="M37.2825 61.4829C36.954 61.4829 36.6885 61.2174 36.6885 60.8889C36.6885 60.5604 36.954 60.2949 37.2825 60.2949H41.823C42.1515 60.2949 42.417 60.5604 42.417 60.8889C42.417 61.2174 42.1515 61.4829 41.823 61.4829H37.2825Z" fill="#222222"/>
<path d="M37.2825 56.9439C36.954 56.9439 36.6885 56.6784 36.6885 56.3499C36.6885 56.0214 36.954 55.7559 37.2825 55.7559H46.3635C46.692 55.7559 46.9575 56.0214 46.9575 56.3499C46.9575 56.6784 46.692 56.9439 46.3635 56.9439H37.2825Z" fill="#222222"/>
<path d="M57.708 56.9439C57.3795 56.9439 57.114 56.6784 57.114 56.3499C57.114 56.0214 57.3795 55.7559 57.708 55.7559H64.5165C64.845 55.7559 65.1105 56.0214 65.1105 56.3499C65.1105 56.6784 64.845 56.9439 64.5165 56.9439H57.708Z" fill="#222222"/>
<path d="M48.6316 43.3267C48.3031 43.3267 48.0376 43.0612 48.0376 42.7327C48.0376 42.4042 48.3031 42.1387 48.6316 42.1387H64.5211C64.8496 42.1387 65.1151 42.4042 65.1151 42.7327C65.1151 43.0612 64.8496 43.3267 64.5211 43.3267H48.6316Z" fill="#222222"/>
<path d="M37.2825 47.8657C36.954 47.8657 36.6885 47.6002 36.6885 47.2717C36.6885 46.9432 36.954 46.6777 37.2825 46.6777H50.8995C51.228 46.6777 51.4935 46.9432 51.4935 47.2717C51.4935 47.6002 51.228 47.8657 50.8995 47.8657H37.2825Z" fill="#222222"/>
<path d="M37.2825 43.3267C36.954 43.3267 36.6885 43.0612 36.6885 42.7327C36.6885 42.4042 36.954 42.1387 37.2825 42.1387H44.091C44.4195 42.1387 44.685 42.4042 44.685 42.7327C44.685 43.0612 44.4195 43.3267 44.091 43.3267H37.2825Z" fill="#222222"/>
<path d="M46.3589 61.4829C46.0304 61.4829 45.7649 61.2174 45.7649 60.8889C45.7649 60.5604 46.0304 60.2949 46.3589 60.2949H50.8994C51.2279 60.2949 51.4934 60.5604 51.4934 60.8889C51.4934 61.2174 51.2279 61.4829 50.8994 61.4829H46.3589Z" fill="#222222"/>
<path d="M50.8994 56.9439C50.5709 56.9439 50.3054 56.6784 50.3054 56.3499C50.3054 56.0214 50.5709 55.7559 50.8994 55.7559H53.1674C53.4959 55.7559 53.7614 56.0214 53.7614 56.3499C53.7614 56.6784 53.4959 56.9439 53.1674 56.9439H50.8994Z" fill="#222222"/>
<path d="M25.9336 61.4844C25.6051 61.4844 25.3396 61.2189 25.3396 60.8904V56.3499C25.3396 56.0214 25.6051 55.7559 25.9336 55.7559H30.4741C30.8026 55.7559 31.0681 56.0214 31.0681 56.3499V60.8904C31.0681 61.2189 30.8026 61.4844 30.4741 61.4844H25.9336ZM27.0676 56.9439C26.7706 56.9439 26.5276 57.1869 26.5276 57.4839V59.7519C26.5276 60.0489 26.7706 60.2919 27.0676 60.2919H29.3356C29.6326 60.2919 29.8756 60.0489 29.8756 59.7519V57.4839C29.8756 57.1869 29.6326 56.9439 29.3356 56.9439H27.0676Z" fill="#222222"/>
<path d="M25.9336 47.8672C25.6051 47.8672 25.3396 47.6017 25.3396 47.2732V42.7327C25.3396 42.4042 25.6051 42.1387 25.9336 42.1387H30.4741C30.8026 42.1387 31.0681 42.4042 31.0681 42.7327V47.2732C31.0681 47.6017 30.8026 47.8672 30.4741 47.8672H25.9336ZM27.0676 43.3267C26.7706 43.3267 26.5276 43.5697 26.5276 43.8667V46.1347C26.5276 46.4317 26.7706 46.6747 27.0676 46.6747H29.3356C29.6326 46.6747 29.8756 46.4317 29.8756 46.1347V43.8667C29.8756 43.5697 29.6326 43.3267 29.3356 43.3267H27.0676Z" fill="#222222"/>
<path d="M25.7851 27.2661C25.6546 27.2661 25.5331 27.2166 25.4386 27.1221L18.6301 20.3136C18.5356 20.2191 18.4861 20.0976 18.4861 19.9671C18.4861 19.8366 18.5356 19.7106 18.6301 19.6206C18.7246 19.5261 18.8461 19.4766 18.9766 19.4766C19.1071 19.4766 19.2331 19.5261 19.3231 19.6206L26.1316 26.4291C26.2261 26.5236 26.2756 26.6451 26.2756 26.7756C26.2756 26.9061 26.2261 27.0321 26.1316 27.1221C26.0371 27.2166 25.9156 27.2661 25.7851 27.2661Z" fill="#222222"/>
<path d="M18.9765 27.2661C18.846 27.2661 18.7245 27.2166 18.63 27.1221C18.441 26.9286 18.441 26.6181 18.63 26.4291L25.4385 19.6206C25.533 19.5261 25.6545 19.4766 25.785 19.4766C25.9155 19.4766 26.0415 19.5261 26.1315 19.6206C26.226 19.7151 26.2755 19.8366 26.2755 19.9671C26.2755 20.0976 26.226 20.2236 26.1315 20.3136L19.323 27.1221C19.2285 27.2166 19.107 27.2661 18.9765 27.2661Z" fill="#222222"/>
<path d="M66.4559 26.7436C66.3164 26.7436 66.1769 26.6851 66.0779 26.5861L63.3599 23.8681C63.2564 23.7646 63.2024 23.6296 63.2024 23.4901C63.2024 23.3506 63.2564 23.2111 63.3599 23.1121C63.4634 23.0131 63.5939 22.9546 63.7379 22.9546C63.8819 22.9546 64.0169 23.0086 64.1159 23.1121L66.0689 25.0651C66.1724 25.1686 66.3074 25.2226 66.4514 25.2226C66.5954 25.2226 66.7304 25.1686 66.8339 25.0651L71.9909 19.9036C72.0944 19.8001 72.2294 19.7461 72.3689 19.7461C72.5084 19.7461 72.6479 19.8001 72.7469 19.9036C72.8459 20.0071 72.9044 20.1421 72.9044 20.2816C72.9044 20.4211 72.8504 20.5606 72.7469 20.6596L66.8249 26.5816C66.7214 26.6851 66.5909 26.7391 66.4469 26.7391L66.4559 26.7436Z" fill="#222222"/>
</svg>
