<svg width="90" height="90" viewBox="0 0 90 90" fill="none" xmlns="http://www.w3.org/2000/svg">
<path d="M25.1055 77.359C24.822 77.359 24.5925 77.1295 24.5925 76.846V57.433C24.5925 57.271 24.525 57.1135 24.4035 57.001C21.9285 54.7285 19.9485 52.0285 18.5175 48.982C18.4815 48.9145 18.468 48.8875 18.4545 48.8605C16.902 45.481 16.1145 41.9305 16.1145 38.308C16.1145 28.4575 21.762 19.6285 30.8475 15.268L30.888 15.2455C34.5105 13.5175 38.3895 12.6445 42.4215 12.6445C56.916 12.6445 68.7105 24.16 68.7105 38.308C68.7105 39.289 68.6565 40.27 68.544 41.2195C68.499 41.593 68.571 41.953 68.7465 42.259L73.917 51.331C74.295 51.979 74.3355 52.744 74.0295 53.4325C73.728 54.1165 73.107 54.6205 72.3735 54.778L67.932 55.696C67.662 55.75 67.464 55.993 67.464 56.2675V63.9805C67.464 65.7445 66.0195 67.1845 64.242 67.1845H56.214C55.89 67.1845 55.629 67.4455 55.629 67.7695V76.8505C55.629 77.134 55.3995 77.3635 55.116 77.3635H25.1055V77.359ZM42.4215 13.666C41.0445 13.666 39.6405 13.783 38.2455 14.008C37.962 14.053 37.755 14.296 37.755 14.584V32.3725C37.755 32.656 37.9575 32.899 38.2365 32.9485C40.9365 33.43 42.894 35.7655 42.894 38.506C42.894 41.2465 40.9365 43.591 38.2365 44.077C37.9575 44.1265 37.755 44.3695 37.755 44.653V75.7435C37.755 76.0675 38.016 76.3285 38.34 76.3285H54.018C54.342 76.3285 54.603 76.0675 54.603 75.7435V67.7605C54.603 67.4365 54.342 67.1755 54.018 67.1755H52.902C50.0715 67.1755 47.304 66.0325 45.3105 64.0345L43.4655 62.1985C43.3665 62.104 43.3125 61.9735 43.3125 61.834C43.3125 61.699 43.3665 61.5685 43.461 61.4695C43.56 61.3705 43.686 61.3165 43.8255 61.3165C43.965 61.3165 44.091 61.3705 44.1855 61.465L46.035 63.301C47.8395 65.1055 50.346 66.1405 52.902 66.1405H64.242C65.4525 66.1405 66.438 65.164 66.438 63.9625V55.3585C66.438 55.1155 66.609 54.904 66.8475 54.8545L72.162 53.7565C72.5715 53.6665 72.918 53.383 73.089 53.0005C73.26 52.618 73.2375 52.1905 73.026 51.826L67.8555 42.7495C67.572 42.25 67.4595 41.674 67.527 41.0845C67.635 40.171 67.689 39.2305 67.689 38.2945C67.671 24.709 56.3355 13.657 42.426 13.657L42.4215 13.666ZM20.745 49.2115C20.538 49.2115 20.3445 49.324 20.241 49.4995C20.1375 49.6795 20.133 49.9 20.2365 50.08C21.6045 52.528 23.3595 54.706 25.4475 56.5555C25.5555 56.6545 25.6185 56.794 25.6185 56.938V75.7435C25.6185 76.0675 25.8795 76.3285 26.2035 76.3285H29.9655C30.2895 76.3285 30.5505 76.0675 30.5505 75.7435V57.964C30.5505 57.721 30.3975 57.496 30.1635 57.415C29.106 57.0325 28.395 56.029 28.395 54.9175C28.395 53.446 29.592 52.249 31.0635 52.249C32.535 52.249 33.7275 53.446 33.7275 54.9175C33.7275 56.029 33.0165 57.0325 31.959 57.415C31.7295 57.5005 31.572 57.721 31.572 57.964V75.7435C31.572 76.0675 31.833 76.3285 32.157 76.3285H36.144C36.468 76.3285 36.729 76.0675 36.729 75.7435V44.653C36.729 44.3695 36.5265 44.1265 36.2475 44.077C33.543 43.5955 31.581 41.251 31.581 38.506C31.581 35.761 33.543 33.43 36.2475 32.9485C36.5265 32.899 36.729 32.656 36.729 32.3725V15.0385C36.729 14.8585 36.648 14.6875 36.504 14.575C36.4005 14.494 36.2745 14.4535 36.144 14.4535C36.0945 14.4535 36.045 14.458 36 14.4715C34.623 14.8225 33.2505 15.304 31.9185 15.898C31.707 15.9925 31.572 16.204 31.572 16.4335V23.485C31.572 23.7325 31.725 23.953 31.959 24.034C33.0165 24.4165 33.7275 25.42 33.7275 26.5315C33.7275 28.003 32.5305 29.2 31.0635 29.2C29.5965 29.2 28.395 28.003 28.395 26.5315C28.395 25.42 29.106 24.4165 30.1635 24.034C30.393 23.9485 30.5505 23.728 30.5505 23.485V17.5495C30.5505 17.3425 30.438 17.149 30.258 17.041C30.168 16.987 30.0645 16.96 29.9655 16.96C29.8665 16.96 29.763 16.987 29.6775 17.0365C21.9465 21.4555 17.145 29.605 17.145 38.3035C17.145 41.5705 17.811 44.779 19.1295 47.83C19.224 48.046 19.431 48.1855 19.665 48.1855H24.8535C25.1775 48.1855 25.4385 47.9245 25.4385 47.6005V38.578C25.4385 38.3305 25.281 38.11 25.0515 38.029C24.5745 37.858 24.1605 37.5655 23.8545 37.1785C23.4135 36.6205 23.2155 35.923 23.2965 35.2165C23.3775 34.51 23.733 33.8755 24.291 33.4345C24.768 33.0565 25.335 32.8585 25.938 32.8585C26.0415 32.8585 26.1495 32.863 26.253 32.8765C27.7155 33.0475 28.764 34.375 28.593 35.8375C28.512 36.544 28.1565 37.1785 27.5985 37.6195C27.3735 37.795 27.1215 37.9345 26.847 38.0335C26.6175 38.119 26.46 38.3395 26.46 38.5825V48.6985C26.46 48.982 26.2305 49.2115 25.947 49.2115H20.745ZM31.0635 53.275C30.159 53.275 29.421 54.013 29.421 54.9175C29.421 55.822 30.15 56.551 31.05 56.5555C31.9635 56.5465 32.7015 55.813 32.7015 54.9175C32.7015 54.022 31.9635 53.275 31.059 53.275H31.0635ZM37.242 33.8845C34.686 33.8845 32.607 35.959 32.607 38.5105C32.607 41.062 34.686 43.1455 37.242 43.1455C39.798 43.1455 41.868 41.0665 41.868 38.5105C41.868 35.9545 39.7935 33.8845 37.242 33.8845ZM25.938 33.8845C25.5735 33.8845 25.2135 34.0105 24.921 34.24C24.579 34.51 24.3585 34.9015 24.309 35.338C24.2595 35.7745 24.381 36.202 24.651 36.544C24.921 36.886 25.3125 37.1065 25.749 37.156C25.812 37.165 25.875 37.165 25.938 37.165C26.2935 37.165 26.6445 37.048 26.928 36.8365C27.297 36.544 27.5175 36.157 27.5715 35.716C27.621 35.2795 27.4995 34.852 27.2295 34.51C26.9595 34.168 26.568 33.9475 26.136 33.898C26.0775 33.889 26.01 33.8845 25.9425 33.8845H25.938ZM31.0635 24.898C30.159 24.898 29.421 25.636 29.421 26.5405C29.421 27.445 30.159 28.183 31.0635 28.183C31.968 28.183 32.706 27.445 32.706 26.5405C32.706 25.636 31.968 24.898 31.0635 24.898Z" fill="#222222"/>
</svg>
