<svg width="90" height="90" viewBox="0 0 90 90" fill="none" xmlns="http://www.w3.org/2000/svg">
<path d="M45.2295 78.7418C43.3305 78.7418 41.7825 77.1983 41.7825 75.2948C41.7825 73.3913 43.326 71.8523 45.2295 71.8523C47.133 71.8523 48.672 73.3958 48.672 75.2948C48.672 77.1938 47.1285 78.7418 45.2295 78.7418ZM45.2295 72.8513C43.8795 72.8513 42.786 73.9493 42.786 75.2948C42.786 76.6403 43.884 77.7383 45.2295 77.7383C46.575 77.7383 47.6685 76.6403 47.6685 75.2948C47.6685 73.9493 46.575 72.8513 45.2295 72.8513ZM19.2375 75.7223C12.771 75.7223 7.5105 70.4618 7.5105 63.9953C7.5105 57.9743 12.2085 52.8443 18.2025 52.3178C18.5085 52.2908 18.738 52.0388 18.738 51.7373V47.0303C18.738 46.7558 18.963 46.5308 19.2375 46.5308H26.595C26.919 46.5308 27.18 46.2698 27.18 45.9458V39.8393C27.18 39.5153 26.919 39.2543 26.595 39.2543H24.0345C19.971 39.2543 16.668 35.9513 16.668 31.8878C16.668 27.8243 19.971 24.5213 24.0345 24.5213H28.0755C28.35 24.5213 28.5885 24.3278 28.647 24.0623C29.6505 19.4273 33.831 16.0613 38.583 16.0613C40.824 16.0613 43.0335 16.8173 44.802 18.1853C44.9055 18.2663 45.0315 18.3068 45.162 18.3068C45.2025 18.3068 45.2475 18.3023 45.288 18.2933C45.459 18.2573 45.603 18.1448 45.684 17.9918C47.853 13.8383 52.1235 11.2598 56.8215 11.2598C63.7515 11.2598 69.39 16.9028 69.39 23.8328C69.39 24.1343 69.381 24.4313 69.3585 24.7238C69.3405 24.9623 69.4665 25.1828 69.678 25.2863C72.162 26.5328 73.7685 29.1203 73.7685 31.8788C73.7685 35.9423 70.4655 39.2453 66.402 39.2453H63.8505C63.5265 39.2453 63.2655 39.5063 63.2655 39.8303V45.9368C63.2655 46.2608 63.5265 46.5218 63.8505 46.5218H71.2035C71.478 46.5218 71.703 46.7468 71.703 47.0213C71.703 47.0213 71.703 51.6743 71.703 51.7058C71.6895 52.0163 71.9235 52.2863 72.234 52.3133C78.228 52.8398 82.926 57.9698 82.926 63.9908C82.926 70.4573 77.6655 75.7178 71.199 75.7178C64.7325 75.7178 59.4765 70.4573 59.4765 63.9908C59.4765 57.9698 64.17 52.8398 70.164 52.3133C70.47 52.2863 70.6995 52.0343 70.6995 51.7328V48.1103C70.6995 47.7863 70.4385 47.5253 70.1145 47.5253H62.7615C62.487 47.5253 62.262 47.3003 62.262 47.0258V39.8348C62.262 39.5108 62.001 39.2498 61.677 39.2498H46.3005C45.9765 39.2498 45.7155 39.5108 45.7155 39.8348V53.6903C45.7155 54.0008 45.9585 54.2573 46.2645 54.2753C50.454 54.5273 54.3915 56.3183 57.3525 59.3198C57.546 59.5178 57.546 59.8328 57.3525 60.0263C57.258 60.1208 57.1365 60.1703 57.0015 60.1703C56.8665 60.1703 56.7405 60.1163 56.646 60.0218C53.604 56.9393 49.545 55.2428 45.2205 55.2428C40.896 55.2428 36.828 56.9393 33.7905 60.0218C33.696 60.1208 33.57 60.1703 33.435 60.1703C33.3 60.1703 33.1785 60.1208 33.084 60.0263C32.886 59.8328 32.886 59.5133 33.084 59.3198C36.045 56.3183 39.987 54.5273 44.181 54.2753C44.4915 54.2573 44.73 54.0008 44.73 53.6903V39.8348C44.73 39.5108 44.469 39.2498 44.145 39.2498H28.7685C28.4445 39.2498 28.1835 39.5108 28.1835 39.8348V47.0258C28.1835 47.3003 27.9585 47.5253 27.684 47.5253H20.3265C20.0025 47.5253 19.7415 47.7863 19.7415 48.1103V51.7328C19.7415 52.0388 19.971 52.2908 20.277 52.3133C26.271 52.8398 30.969 57.9698 30.969 63.9908C30.969 70.4573 25.7085 75.7178 19.242 75.7178L19.2375 75.7223ZM71.2125 53.2673C65.2995 53.2673 60.4935 58.0778 60.4935 63.9953C60.4935 69.9128 65.304 74.7188 71.2125 74.7188C77.121 74.7188 81.9405 69.9083 81.9405 63.9953C81.9405 58.0823 77.13 53.2673 71.2125 53.2673ZM19.2375 53.2673C13.3245 53.2673 8.5095 58.0778 8.5095 63.9953C8.5095 69.9128 13.32 74.7188 19.2375 74.7188C25.155 74.7188 29.961 69.9083 29.961 63.9953C29.961 58.0823 25.1505 53.2673 19.2375 53.2673ZM24.039 25.5158C20.529 25.5158 17.6715 28.3733 17.6715 31.8833C17.6715 35.3933 20.529 38.2508 24.039 38.2508H66.4155C69.9255 38.2508 72.783 35.3933 72.783 31.8833C72.783 29.2418 71.109 26.8433 68.6205 25.9118C68.4 25.8308 68.2695 25.6103 68.301 25.3763C68.3685 24.8723 68.4045 24.3503 68.4045 23.8328C68.4045 17.4518 63.216 12.2588 56.835 12.2588C52.1055 12.2588 47.898 15.0893 46.1115 19.4678C46.0575 19.6028 45.945 19.7063 45.8055 19.7558C45.756 19.7738 45.702 19.7783 45.648 19.7783C45.558 19.7783 45.468 19.7558 45.3915 19.7063C45.1575 19.5668 44.9325 19.4498 44.6985 19.3463C44.6535 19.3238 44.6085 19.3013 44.577 19.2698C42.9165 17.8388 40.797 17.0513 38.601 17.0513C33.984 17.0513 30.0735 20.4983 29.502 25.0748C29.4705 25.3268 29.259 25.5158 29.007 25.5158H24.048H24.039ZM19.233 71.8073C18.441 71.8073 17.703 71.5328 17.1495 71.0288C16.713 70.6328 16.191 69.9083 16.191 68.7158V67.1228C16.191 66.9338 16.0965 66.7538 15.9435 66.6458C14.4045 65.5658 13.4865 63.8063 13.4865 61.9298C13.5045 58.7393 16.0875 56.1788 19.2375 56.1788C22.3875 56.1788 24.993 58.7618 24.993 61.9343C24.993 63.8108 24.075 65.5703 22.5315 66.6458C22.374 66.7538 22.2795 66.9338 22.2795 67.1273V68.7203C22.2795 70.8443 20.7 71.8118 19.2375 71.8118L19.233 71.8073ZM17.7795 67.0238C17.4555 67.0238 17.1945 67.2848 17.1945 67.6088V68.7158C17.1945 70.1513 18.252 70.8083 19.2375 70.8083C20.223 70.8083 21.2805 70.1513 21.2805 68.7158V67.6088C21.2805 67.2848 21.0195 67.0238 20.6955 67.0238H17.784H17.7795ZM19.2375 57.1778C16.6185 57.1778 14.4855 59.3108 14.4855 61.9298C14.4855 63.5543 15.3045 65.0483 16.677 65.9303C16.7715 65.9933 16.8795 66.0248 16.992 66.0248H21.4785C21.591 66.0248 21.699 65.9933 21.7935 65.9303C23.1705 65.0483 23.9895 63.5543 23.9895 61.9298V61.8848C23.967 59.2928 21.834 57.1823 19.2375 57.1823V57.1778ZM67.059 70.2368C66.7845 70.2368 66.5595 70.0118 66.5595 69.7373V62.7758C66.5595 62.5013 66.7845 62.2763 67.059 62.2763H68.085C68.409 62.2763 68.67 62.0153 68.67 61.6913V60.2963C68.67 58.8968 69.8085 57.7583 71.208 57.7583C72.6075 57.7583 73.7505 58.8968 73.7505 60.2963V61.6913C73.7505 62.0153 74.0115 62.2763 74.3355 62.2763H75.3615C75.6405 62.2763 75.8655 62.5013 75.8655 62.7758V69.7373C75.8655 70.0118 75.6405 70.2368 75.366 70.2368H67.0545H67.059ZM68.1435 63.2753C67.8195 63.2753 67.5585 63.5363 67.5585 63.8603V68.6528C67.5585 68.9768 67.8195 69.2378 68.1435 69.2378H74.286C74.61 69.2378 74.871 68.9768 74.871 68.6528V63.8603C74.871 63.5363 74.61 63.2753 74.286 63.2753H68.1435ZM71.217 58.7528C70.38 58.7528 69.6735 59.4593 69.6735 60.2918V61.6868C69.6735 62.0108 69.9345 62.2718 70.2585 62.2718H72.171C72.495 62.2718 72.756 62.0108 72.756 61.6868V60.2918C72.756 59.4413 72.0675 58.7528 71.217 58.7528ZM40.356 69.3278C40.275 69.3278 40.1985 69.3098 40.131 69.2738C40.014 69.2153 39.924 69.1118 39.8835 68.9813C39.843 68.8553 39.852 68.7158 39.915 68.5988C40.9365 66.5873 42.975 65.3363 45.2295 65.3363C47.484 65.3363 49.518 66.5873 50.5395 68.5988C50.6025 68.7383 50.6115 68.8643 50.571 68.9813C50.5305 69.1073 50.4405 69.2108 50.3235 69.2693C50.2515 69.3053 50.175 69.3233 50.0985 69.3233C49.9095 69.3233 49.7385 69.2198 49.6485 69.0488C48.798 67.3748 47.1015 66.3353 45.2295 66.3353C43.3575 66.3353 41.6565 67.3748 40.806 69.0488C40.7205 69.2198 40.5495 69.3233 40.3605 69.3233L40.356 69.3278ZM53.9235 65.0978C53.766 65.0978 53.622 65.0258 53.523 64.8998C51.525 62.2898 48.501 60.7913 45.225 60.7913C41.949 60.7913 38.9205 62.2898 36.9225 64.9043C36.828 65.0303 36.6795 65.1023 36.522 65.1023C36.414 65.1023 36.306 65.0663 36.2205 64.9988C36 64.8323 35.9595 64.5173 36.126 64.2968C38.3175 61.4348 41.6295 59.7923 45.2205 59.7923C48.8115 59.7923 52.1235 61.4348 54.3105 64.2968C54.396 64.4183 54.4275 64.5443 54.4095 64.6658C54.3915 64.7963 54.324 64.9178 54.216 64.9988C54.126 65.0663 54.0225 65.1023 53.91 65.1023L53.9235 65.0978Z" fill="#222222"/>
</svg>
