<svg width="8" height="10" viewBox="0 0 8 10" fill="none" xmlns="http://www.w3.org/2000/svg">
<path d="M0.118103 5.72982L3.98026 9.57199L7.84241 5.72982C7.88798 5.69512 7.92556 5.65104 7.95261 5.60055C7.97966 5.55007 7.99554 5.49436 7.99919 5.4372C8.00284 5.38004 7.99416 5.32276 7.97375 5.26925C7.95333 5.21574 7.92166 5.16723 7.88087 5.12702C7.84008 5.08681 7.79113 5.05584 7.73733 5.03619C7.68353 5.01654 7.62614 5.00869 7.56904 5.01315C7.51194 5.01761 7.45646 5.03429 7.40637 5.06206C7.35627 5.08983 7.31273 5.12803 7.27868 5.17409L4.38007 8.04872L4.38007 0.400371C4.38007 0.294335 4.33794 0.192642 4.26297 0.117663C4.18799 0.0426847 4.08629 0.000561458 3.98026 0.000561449C3.87422 0.000561439 3.77253 0.0426847 3.69755 0.117663C3.62257 0.192642 3.58045 0.294335 3.58045 0.400371L3.58045 8.04872L0.681833 5.17409C0.606548 5.09933 0.504649 5.05755 0.398554 5.05792C0.292459 5.0583 0.190858 5.1008 0.116103 5.17609C0.0413481 5.25137 -0.000438384 5.35327 -6.38602e-05 5.45937C0.000311154 5.56546 0.0428172 5.66706 0.118103 5.74182L0.118103 5.72982Z" fill="#222222"/>
</svg>
